<svg width="181" height="43" viewBox="0 0 181 43" fill="none" xmlns="http://www.w3.org/2000/svg">
<path d="M12.654 12.558L12.844 11.57C12.7427 10.202 11.818 9.518 10.07 9.518C9.05667 9.518 8.17 9.88533 7.41 10.62C6.67533 11.3293 6.308 12.0893 6.308 12.9C6.308 13.6853 6.63733 14.382 7.296 14.99C7.98 15.5727 8.79067 16.1047 9.728 16.586C10.6907 17.042 11.6407 17.5487 12.578 18.106C13.5407 18.638 14.3513 19.3347 15.01 20.196C15.694 21.0573 16.036 22.0327 16.036 23.122C16.036 25.3767 15.1493 27.15 13.376 28.442C11.6027 29.734 9.69 30.38 7.638 30.38C5.586 30.38 3.876 30.0127 2.508 29.278C1.14 28.518 0.456 27.378 0.456 25.858C0.456 25.0473 0.734667 24.3127 1.292 23.654C1.84933 22.9953 2.64733 22.666 3.686 22.666C4.09133 22.666 4.45867 22.78 4.788 23.008C5.11733 23.236 5.32 23.54 5.396 23.92C5.396 24.3 5.168 24.49 4.712 24.49C3.85067 24.49 3.42 24.8573 3.42 25.592C3.44533 26.428 3.838 27.188 4.598 27.872C5.38333 28.556 6.47267 28.898 7.866 28.898C9.28467 28.898 10.488 28.4167 11.476 27.454C12.4893 26.4913 12.996 25.326 12.996 23.958C12.996 23.046 12.654 22.2227 11.97 21.488C11.286 20.7533 10.4627 20.1327 9.5 19.626C8.53733 19.094 7.562 18.562 6.574 18.03C5.61133 17.498 4.788 16.852 4.104 16.092C3.42 15.332 3.078 14.4707 3.078 13.508C3.078 11.8107 3.8 10.4553 5.244 9.442C6.71333 8.42867 8.37267 7.922 10.222 7.922C11.4633 7.922 12.5907 8.17533 13.604 8.682C14.6173 9.18867 15.1367 9.96133 15.162 11C15.162 11.608 15.01 12.1147 14.706 12.52C14.402 12.9253 13.984 13.128 13.452 13.128C12.9453 13.128 12.6793 12.938 12.654 12.558ZM20.5016 18.182C20.7803 17.8527 21.2236 17.4347 21.8316 16.928C22.4396 16.396 22.9209 16.13 23.2756 16.13C23.6303 16.13 23.8076 16.6367 23.8076 17.65C23.8076 18.638 23.5416 19.6133 23.0096 20.576C22.9083 21.032 22.8323 21.6907 22.7816 22.552C23.5163 20.5507 24.2509 19.0433 24.9856 18.03C25.7203 17.0167 26.6069 16.51 27.6456 16.51C28.7096 16.51 29.6343 16.9913 30.4196 17.954C31.2049 18.8913 31.5976 20.386 31.5976 22.438C31.5976 24.4647 31.0149 26.2633 29.8496 27.834C28.7096 29.4047 27.2023 30.19 25.3276 30.19C24.3649 30.19 23.3896 29.8353 22.4016 29.126C22.4016 33.9647 22.1229 37.6507 21.5656 40.184C21.5149 40.412 21.1729 40.792 20.5396 41.324C19.9316 41.8813 19.4883 42.16 19.2096 42.16C18.9056 42.16 18.6903 41.9573 18.5636 41.552C18.4369 41.1467 18.3736 40.7667 18.3736 40.412C18.3736 37.8027 18.9056 34.446 19.9696 30.342C20.1469 27.9607 20.2609 25.3513 20.3116 22.514C20.3876 19.6767 20.4509 18.2327 20.5016 18.182ZM25.5556 28.822C26.2903 28.822 27.0503 28.3153 27.8356 27.302C28.6209 26.2633 29.0136 24.9967 29.0136 23.502C29.0136 21.982 28.7983 20.7787 28.3676 19.892C27.9623 18.98 27.4049 18.524 26.6956 18.524C25.4796 18.524 24.0989 21.0447 22.5536 26.086C22.5029 26.7953 22.4776 27.3527 22.4776 27.758C23.1869 28.4673 24.2129 28.822 25.5556 28.822ZM44.835 30.19C43.847 30.19 43.0996 29.9873 42.593 29.582C42.4156 29.4047 42.327 28.9613 42.327 28.252C42.327 27.5173 42.3523 26.542 42.403 25.326C41.7443 26.9727 41.0856 28.2013 40.427 29.012C39.7936 29.7973 38.9703 30.19 37.957 30.19C36.9436 30.19 36.057 29.7213 35.297 28.784C34.537 27.8213 34.157 26.3267 34.157 24.3C34.157 22.248 34.727 20.4367 35.867 18.866C37.0323 17.2953 38.5523 16.51 40.427 16.51C41.2376 16.51 42.1496 17.042 43.163 18.106C43.3656 17.8273 43.7203 17.498 44.227 17.118C44.759 16.7127 45.2023 16.51 45.557 16.51C45.937 16.51 46.127 16.9913 46.127 17.954C46.127 18.2073 46.051 18.7013 45.899 19.436C45.7723 20.1707 45.6203 20.7027 45.443 21.032C45.215 21.6147 45.101 23.6793 45.101 27.226C45.101 27.91 45.177 28.252 45.329 28.252C45.7596 28.2267 46.355 27.6947 47.115 26.656C47.875 25.592 48.6223 24.2367 49.357 22.59C50.117 20.9433 50.573 20.12 50.725 20.12C50.9023 20.12 50.991 20.2213 50.991 20.424C50.991 21.1333 50.6236 22.2607 49.889 23.806C47.8876 28.062 46.203 30.19 44.835 30.19ZM40.199 18.03C39.4896 18.03 38.7296 18.562 37.919 19.626C37.1336 20.6647 36.741 21.8933 36.741 23.312C36.741 24.7307 36.9436 25.896 37.349 26.808C37.7796 27.72 38.337 28.176 39.021 28.176C39.857 28.176 41.0856 26.086 42.707 21.906C42.7323 21.7033 42.7576 21.3613 42.783 20.88C42.8336 20.3733 42.8716 19.9933 42.897 19.74C42.669 19.3347 42.2636 18.9547 41.681 18.6C41.1236 18.22 40.6296 18.03 40.199 18.03ZM56.6458 20.766L56.9498 18.828C56.9498 18.5493 56.8612 18.296 56.6838 18.068C56.5065 17.84 56.2785 17.726 55.9998 17.726C55.0625 17.726 54.2518 18.4353 53.5678 19.854C52.8838 21.2473 52.5418 22.59 52.5418 23.882C52.5418 25.174 52.8078 26.2253 53.3398 27.036C53.8718 27.8213 54.5178 28.214 55.2778 28.214C56.0632 28.214 56.7598 28.0367 57.3678 27.682C57.9758 27.3273 58.5332 26.8207 59.0398 26.162C60.1038 24.7687 61.0158 23.1853 61.7758 21.412C61.9785 20.956 62.1305 20.6267 62.2318 20.424C62.3585 20.2213 62.4852 20.12 62.6118 20.12C62.7638 20.12 62.8398 20.2213 62.8398 20.424C62.8398 21.26 62.5485 22.2607 61.9658 23.426C61.3832 24.5913 60.8892 25.4907 60.4838 26.124C60.1038 26.732 59.6098 27.378 59.0018 28.062C57.7352 29.4807 56.1518 30.19 54.2518 30.19C52.8078 30.19 51.7058 29.6833 50.9458 28.67C50.2112 27.6313 49.8438 26.5293 49.8438 25.364C49.8438 22.476 50.4645 20.2847 51.7058 18.79C52.9725 17.27 54.5685 16.51 56.4938 16.51C57.3045 16.51 57.9378 16.7253 58.3938 17.156C58.8752 17.5613 59.1158 18.03 59.1158 18.562C59.1158 19.55 58.9385 20.2847 58.5838 20.766C58.2292 21.2473 57.7985 21.488 57.2918 21.488C56.8612 21.488 56.6458 21.2473 56.6458 20.766ZM66.4929 30.19C65.0742 30.19 63.9469 29.658 63.1109 28.594C62.2749 27.5047 61.8569 26.276 61.8569 24.908C61.8569 22.1467 62.4395 20.0567 63.6049 18.638C64.7702 17.2193 66.2775 16.51 68.1269 16.51C68.9882 16.51 69.6975 16.7507 70.2549 17.232C70.8122 17.688 71.0909 18.3213 71.0909 19.132C71.0909 20.652 70.4449 21.9313 69.1529 22.97C67.8862 23.9833 66.3282 24.5153 64.4789 24.566C64.5802 25.554 64.9095 26.4153 65.4669 27.15C66.0495 27.8593 66.7209 28.214 67.4809 28.214C68.2409 28.214 68.9249 28.0367 69.5329 27.682C70.1409 27.3273 70.6982 26.8207 71.2049 26.162C72.2689 24.7687 73.1809 23.1853 73.9409 21.412C74.1435 20.956 74.2955 20.6267 74.3969 20.424C74.5235 20.2213 74.6502 20.12 74.7769 20.12C74.9289 20.12 75.0049 20.2213 75.0049 20.424C75.0049 21.6907 74.2322 23.5907 72.6869 26.124C71.0149 28.8347 68.9502 30.19 66.4929 30.19ZM64.4789 23.654C65.9735 23.4007 67.0629 22.9193 67.7469 22.21C68.4562 21.5007 68.8109 20.576 68.8109 19.436C68.8109 18.296 68.4435 17.726 67.7089 17.726C66.8222 17.726 66.0749 18.3467 65.4669 19.588C64.8589 20.804 64.5295 22.1593 64.4789 23.654ZM79.7537 18.372L79.8297 17.802C79.8297 17.346 79.5637 17.118 79.0317 17.118C78.525 17.118 78.031 17.46 77.5497 18.144C77.0684 18.8027 76.8277 19.3473 76.8277 19.778C76.8277 20.2087 76.853 20.5507 76.9037 20.804C76.9544 21.0573 77.005 21.2727 77.0557 21.45C77.1317 21.602 77.2457 21.792 77.3977 22.02C77.5497 22.248 77.6637 22.4127 77.7397 22.514L78.1577 23.046C78.335 23.2993 78.4617 23.464 78.5377 23.54C79.855 22.4507 81.4257 21.2347 83.2497 19.892C83.351 19.816 83.465 19.778 83.5917 19.778C83.845 19.778 83.9717 19.9173 83.9717 20.196C83.9717 20.4747 83.8577 20.69 83.6297 20.842C82.0084 21.8807 80.4757 23.008 79.0317 24.224C79.589 25.0347 79.8677 25.9213 79.8677 26.884C79.8677 27.8467 79.5004 28.67 78.7657 29.354C78.031 30.038 77.0937 30.38 75.9537 30.38C74.8137 30.38 74.2437 29.8353 74.2437 28.746C74.2437 27.9607 75.0797 26.7573 76.7517 25.136C76.625 24.984 76.397 24.7433 76.0677 24.414C75.7384 24.0593 75.485 23.7807 75.3077 23.578C75.1557 23.3753 74.9657 23.1093 74.7377 22.78C74.3324 22.1467 74.1297 21.4627 74.1297 20.728C74.1297 19.2333 74.611 18.03 75.5737 17.118C76.5364 16.1807 77.5624 15.712 78.6517 15.712C79.3357 15.712 79.8677 15.902 80.2477 16.282C80.6277 16.6367 80.8177 17.004 80.8177 17.384C80.8177 18.2453 80.615 18.676 80.2097 18.676C79.9057 18.676 79.7537 18.5747 79.7537 18.372ZM77.3217 25.858C76.3084 26.8713 75.8017 27.6947 75.8017 28.328C75.8017 28.936 76.1184 29.24 76.7517 29.24C77.1317 29.24 77.4484 29.088 77.7017 28.784C78.259 28.024 78.1324 27.0487 77.3217 25.858ZM91.686 23.806C89.6846 28.062 87.9873 30.19 86.594 30.19C85.226 30.19 84.4153 30.0253 84.162 29.696C83.934 29.3667 83.82 28.2773 83.82 26.428C83.82 24.5787 83.9973 21.906 84.352 18.41C83.0853 18.1567 82.414 17.6373 82.338 16.852C82.338 16.4467 82.604 16.244 83.136 16.244C83.668 16.244 84.1366 16.3453 84.542 16.548C84.77 14.724 85.036 12.8747 85.34 11C85.416 10.5187 85.6566 10.0627 86.062 9.632C86.4673 9.20133 86.86 8.986 87.24 8.986C87.5693 8.986 87.734 9.50533 87.734 10.544C87.734 11.0253 87.5566 13.242 87.202 17.194C87.886 17.0673 88.6333 16.814 89.444 16.434C90.28 16.054 90.774 15.864 90.926 15.864C91.382 15.864 91.61 16.0033 91.61 16.282C91.6353 16.5353 91.1666 16.89 90.204 17.346C89.2413 17.7767 88.2026 18.106 87.088 18.334C86.784 22.0327 86.632 24.832 86.632 26.732C86.632 27.7453 86.784 28.252 87.088 28.252C87.544 28.2267 88.152 27.6947 88.912 26.656C89.672 25.6173 90.4193 24.2747 91.154 22.628C91.914 20.956 92.37 20.12 92.522 20.12C92.6993 20.12 92.788 20.2213 92.788 20.424C92.788 21.1333 92.4206 22.2607 91.686 23.806ZM102.637 30.19C101.649 30.19 100.901 29.9873 100.395 29.582C100.217 29.4047 100.129 28.9613 100.129 28.252C100.129 27.5173 100.154 26.542 100.205 25.326C99.5459 26.9727 98.8872 28.2013 98.2285 29.012C97.5952 29.7973 96.7719 30.19 95.7585 30.19C94.7452 30.19 93.8585 29.7213 93.0985 28.784C92.3385 27.8213 91.9585 26.3267 91.9585 24.3C91.9585 22.248 92.5285 20.4367 93.6685 18.866C94.8339 17.2953 96.3539 16.51 98.2285 16.51C99.0392 16.51 99.9512 17.042 100.965 18.106C101.167 17.8273 101.522 17.498 102.029 17.118C102.561 16.7127 103.004 16.51 103.359 16.51C103.739 16.51 103.929 16.9913 103.929 17.954C103.929 18.2073 103.853 18.7013 103.701 19.436C103.574 20.1707 103.422 20.7027 103.245 21.032C103.017 21.6147 102.903 23.6793 102.903 27.226C102.903 27.91 102.979 28.252 103.131 28.252C103.561 28.2267 104.157 27.6947 104.917 26.656C105.677 25.592 106.424 24.2367 107.159 22.59C107.919 20.9433 108.375 20.12 108.527 20.12C108.704 20.12 108.793 20.2213 108.793 20.424C108.793 21.1333 108.425 22.2607 107.691 23.806C105.689 28.062 104.005 30.19 102.637 30.19ZM98.0005 18.03C97.2912 18.03 96.5312 18.562 95.7205 19.626C94.9352 20.6647 94.5425 21.8933 94.5425 23.312C94.5425 24.7307 94.7452 25.896 95.1505 26.808C95.5812 27.72 96.1385 28.176 96.8225 28.176C97.6585 28.176 98.8872 26.086 100.509 21.906C100.534 21.7033 100.559 21.3613 100.585 20.88C100.635 20.3733 100.673 19.9933 100.699 19.74C100.471 19.3347 100.065 18.9547 99.4825 18.6C98.9252 18.22 98.4312 18.03 98.0005 18.03ZM116.347 24.186C115.562 26.2633 114.827 27.7833 114.143 28.746C113.485 29.7087 112.611 30.19 111.521 30.19C110.432 30.19 109.507 29.7213 108.747 28.784C108.013 27.8467 107.645 26.352 107.645 24.3C107.645 22.248 108.215 20.4367 109.355 18.866C110.521 17.2953 112.041 16.51 113.915 16.51C114.295 16.51 114.751 16.6747 115.283 17.004C115.815 17.308 116.284 17.688 116.689 18.144C116.765 17.8907 117.133 17.498 117.791 16.966C118.45 16.4087 118.957 16.13 119.311 16.13C119.691 16.13 119.881 16.6747 119.881 17.764C119.881 18.8533 119.653 19.816 119.197 20.652C118.944 22.3493 118.805 23.92 118.779 25.364C121.262 22.2227 122.579 20.5633 122.731 20.386C122.909 20.2087 123.061 20.12 123.187 20.12C123.441 20.12 123.567 20.2467 123.567 20.5C123.567 20.652 123.517 20.8167 123.415 20.994C122.605 22.1847 121.009 24.2747 118.627 27.264C118.475 30.2787 118.374 32.3307 118.323 33.42C118.197 36.6373 117.741 38.892 116.955 40.184C116.195 41.5013 114.827 42.16 112.851 42.16C111.99 42.16 111.179 41.894 110.419 41.362C109.685 40.8553 109.317 39.956 109.317 38.664C109.317 37.3973 109.799 36.0927 110.761 34.75C111.749 33.4073 113.535 31.3427 116.119 28.556L116.347 24.186ZM113.687 17.878C112.978 17.878 112.218 18.4353 111.407 19.55C110.622 20.6393 110.229 21.906 110.229 23.35C110.229 24.7687 110.432 25.934 110.837 26.846C111.268 27.7327 111.8 28.176 112.433 28.176C113.067 28.176 113.675 27.6567 114.257 26.618C114.84 25.5793 115.587 23.7933 116.499 21.26C116.55 20.3987 116.575 19.854 116.575 19.626C116.373 19.246 115.955 18.866 115.321 18.486C114.688 18.0807 114.143 17.878 113.687 17.878ZM116.005 30.342C113.117 33.458 111.673 35.9533 111.673 37.828C111.673 38.6893 111.825 39.3987 112.129 39.956C112.433 40.5133 112.851 40.792 113.383 40.792C114.194 40.792 114.764 40.3487 115.093 39.462C115.423 38.5753 115.663 36.7767 115.815 34.066L116.005 30.342ZM126.23 20.082L128.32 19.854C128.523 19.854 128.7 19.968 128.852 20.196C129.004 20.424 129.08 20.6647 129.08 20.918C129.08 21.1713 128.991 22.0327 128.814 23.502C128.662 24.9713 128.586 26.1367 128.586 26.998C128.586 27.834 128.662 28.252 128.814 28.252C129.245 28.2267 129.84 27.6947 130.6 26.656C131.36 25.592 132.107 24.2367 132.842 22.59C133.602 20.9433 134.058 20.12 134.21 20.12C134.387 20.12 134.476 20.2213 134.476 20.424C134.476 21.1333 134.109 22.2607 133.374 23.806C131.373 28.062 129.688 30.19 128.32 30.19C127.332 30.19 126.585 29.9873 126.078 29.582C125.901 29.4047 125.812 28.3027 125.812 26.276C125.812 24.2493 126.027 22.514 126.458 21.07C124.989 21.07 123.963 20.6013 123.38 19.664C123.076 19.1827 122.924 18.638 122.924 18.03C122.924 17.422 123.051 16.89 123.304 16.434C123.557 15.978 123.912 15.75 124.368 15.75C124.849 15.75 125.28 16.0033 125.66 16.51C126.065 16.9913 126.268 17.536 126.268 18.144C126.268 18.752 126.091 19.36 125.736 19.968C125.837 20.044 126.002 20.082 126.23 20.082ZM144.428 30.19C143.44 30.19 142.692 29.9873 142.186 29.582C142.008 29.4047 141.92 28.9613 141.92 28.252C141.92 27.5173 141.945 26.542 141.996 25.326C141.337 26.9727 140.678 28.2013 140.02 29.012C139.386 29.7973 138.563 30.19 137.55 30.19C136.536 30.19 135.65 29.7213 134.89 28.784C134.13 27.8213 133.75 26.3267 133.75 24.3C133.75 22.248 134.32 20.4367 135.46 18.866C136.625 17.2953 138.145 16.51 140.02 16.51C140.83 16.51 141.742 17.042 142.756 18.106C142.958 17.8273 143.313 17.498 143.82 17.118C144.352 16.7127 144.795 16.51 145.15 16.51C145.53 16.51 145.72 16.9913 145.72 17.954C145.72 18.2073 145.644 18.7013 145.492 19.436C145.365 20.1707 145.213 20.7027 145.036 21.032C144.808 21.6147 144.694 23.6793 144.694 27.226C144.694 27.91 144.77 28.252 144.922 28.252C145.352 28.2267 145.948 27.6947 146.708 26.656C147.468 25.592 148.215 24.2367 148.95 22.59C149.71 20.9433 150.166 20.12 150.318 20.12C150.495 20.12 150.584 20.2213 150.584 20.424C150.584 21.1333 150.216 22.2607 149.482 23.806C147.48 28.062 145.796 30.19 144.428 30.19ZM139.792 18.03C139.082 18.03 138.322 18.562 137.512 19.626C136.726 20.6647 136.334 21.8933 136.334 23.312C136.334 24.7307 136.536 25.896 136.942 26.808C137.372 27.72 137.93 28.176 138.614 28.176C139.45 28.176 140.678 26.086 142.3 21.906C142.325 21.7033 142.35 21.3613 142.376 20.88C142.426 20.3733 142.464 19.9933 142.49 19.74C142.262 19.3347 141.856 18.9547 141.274 18.6C140.716 18.22 140.222 18.03 139.792 18.03ZM152.59 27.948L152.628 29.126C152.628 29.8353 152.426 30.19 152.02 30.19C151.412 30.19 150.83 30.114 150.272 29.962C149.715 29.7847 149.436 29.5567 149.436 29.278C149.436 28.974 149.5 27.9733 149.626 26.276C149.778 24.5533 149.854 23.2613 149.854 22.4V20.158C149.854 18.942 149.981 18.2073 150.234 17.954C150.488 17.7007 150.931 17.3333 151.564 16.852C152.223 16.3707 152.692 16.13 152.97 16.13C153.274 16.13 153.464 16.1807 153.54 16.282C153.616 16.3833 153.654 16.5733 153.654 16.852C153.654 18.1947 153.401 19.4613 152.894 20.652C152.768 22.096 152.704 23.0967 152.704 23.654C154.047 21.146 154.984 19.4993 155.516 18.714C156.454 17.2447 157.302 16.51 158.062 16.51C158.544 16.51 158.987 16.7 159.392 17.08C159.823 17.46 160.038 17.9287 160.038 18.486C160.038 19.0433 160.026 19.5753 160 20.082C160 20.5633 159.988 20.9433 159.962 21.222C159.937 21.5007 159.924 21.678 159.924 21.754C160.026 21.5513 160.456 20.9813 161.216 20.044C161.976 19.1067 162.483 18.4987 162.736 18.22C163.015 17.9413 163.306 17.6627 163.61 17.384C164.193 16.8013 164.712 16.51 165.168 16.51C165.65 16.51 166.093 16.6873 166.498 17.042C166.929 17.3967 167.144 17.84 167.144 18.372C167.144 19.4867 167.018 21.1333 166.764 23.312C166.536 25.4653 166.422 26.8333 166.422 27.416C166.422 27.9733 166.498 28.252 166.65 28.252C167.081 28.2267 167.676 27.6947 168.436 26.656C169.196 25.592 169.944 24.2367 170.678 22.59C171.438 20.9433 171.894 20.12 172.046 20.12C172.224 20.12 172.312 20.2213 172.312 20.424C172.312 21.1333 171.945 22.2607 171.21 23.806C169.209 28.062 167.524 30.19 166.156 30.19C165.295 30.19 164.611 29.9873 164.104 29.582C163.927 29.4047 163.838 28.9487 163.838 28.214C163.838 27.454 163.902 26.238 164.028 24.566C164.18 22.8687 164.256 21.602 164.256 20.766C164.256 19.93 164.117 19.512 163.838 19.512C163.509 19.512 162.787 20.0693 161.672 21.184C160.583 22.2987 160 23.084 159.924 23.54C159.772 24.4013 159.696 26.2633 159.696 29.126C159.696 29.8353 159.506 30.19 159.126 30.19C158.544 30.19 157.986 30.114 157.454 29.962C156.948 29.7847 156.694 29.5567 156.694 29.278C156.694 28.974 156.77 27.72 156.922 25.516C157.074 23.312 157.15 21.7667 157.15 20.88C157.15 19.968 156.998 19.512 156.694 19.512C156.416 19.512 155.719 20.386 154.604 22.134C153.49 23.8567 152.869 25.06 152.742 25.744C152.641 26.428 152.59 27.1627 152.59 27.948Z" fill="white"/>
<path d="M12.654 12.558L12.163 12.4636L12.1508 12.5269L12.1551 12.5913L12.654 12.558ZM12.844 11.57L13.335 11.6644L13.3475 11.5993L13.3426 11.5331L12.844 11.57ZM7.41 10.62L7.7573 10.9797L7.75751 10.9795L7.41 10.62ZM7.296 14.99L6.95686 15.3574L6.96418 15.3642L6.97177 15.3706L7.296 14.99ZM9.728 16.586L9.4996 17.0308L9.50672 17.0344L9.51396 17.0379L9.728 16.586ZM12.578 18.106L12.3225 18.5358L12.3292 18.5398L12.3362 18.5436L12.578 18.106ZM15.01 20.196L14.6128 20.4998L14.6184 20.5069L15.01 20.196ZM13.376 28.442L13.6704 28.8461L13.6704 28.8461L13.376 28.442ZM2.508 29.278L2.26515 29.7151L2.27144 29.7185L2.508 29.278ZM1.292 23.654L0.910307 23.331L0.910307 23.331L1.292 23.654ZM4.788 23.008L5.0726 22.5969L5.0726 22.5969L4.788 23.008ZM5.396 23.92H5.896V23.8705L5.88629 23.8219L5.396 23.92ZM3.42 25.592H2.92V25.5996L2.92023 25.6071L3.42 25.592ZM4.598 27.872L4.26347 28.2437L4.26961 28.249L4.598 27.872ZM11.476 27.454L11.1316 27.0915L11.1271 27.0959L11.476 27.454ZM11.97 21.488L12.3359 21.1473L12.3359 21.1473L11.97 21.488ZM9.5 19.626L9.25811 20.0637L9.26713 20.0685L9.5 19.626ZM6.574 18.03L6.33214 18.4676L6.33695 18.4702L6.574 18.03ZM5.244 9.442L4.96012 9.03038L4.95679 9.03272L5.244 9.442ZM13.604 8.682L13.8276 8.23478L13.8276 8.23478L13.604 8.682ZM15.162 11H15.6621L15.6619 10.9878L15.162 11ZM14.706 12.52L15.106 12.82L15.106 12.82L14.706 12.52ZM13.145 12.6524L13.335 11.6644L12.353 11.4756L12.163 12.4636L13.145 12.6524ZM13.3426 11.5331C13.2835 10.7346 12.9739 10.0744 12.3719 9.62903C11.7891 9.19795 10.9985 9.018 10.07 9.018V10.018C10.8895 10.018 11.4352 10.18 11.7772 10.433C12.0997 10.6716 12.3032 11.0374 12.3454 11.6069L13.3426 11.5331ZM10.07 9.018C8.92092 9.018 7.91126 9.44002 7.06249 10.2605L7.75751 10.9795C8.42874 10.3306 9.19241 10.018 10.07 10.018V9.018ZM7.0627 10.2603C6.2573 11.0379 5.808 11.9204 5.808 12.9H6.808C6.808 12.2583 7.09337 11.6207 7.7573 10.9797L7.0627 10.2603ZM5.808 12.9C5.808 13.8452 6.21162 14.6695 6.95686 15.3574L7.63514 14.6226C7.06305 14.0945 6.808 13.5254 6.808 12.9H5.808ZM6.97177 15.3706C7.68966 15.9822 8.53368 16.5348 9.4996 17.0308L9.9564 16.1412C9.04765 15.6746 8.27034 15.1632 7.62023 14.6094L6.97177 15.3706ZM9.51396 17.0379C10.4621 17.487 11.3983 17.9863 12.3225 18.5358L12.8335 17.6762C11.883 17.1111 10.9192 16.597 9.94204 16.1341L9.51396 17.0379ZM12.3362 18.5436C13.2392 19.0427 13.9967 19.6941 14.6128 20.4997L15.4072 19.8923C14.7059 18.9753 13.8421 18.2333 12.8198 17.6684L12.3362 18.5436ZM14.6184 20.5069C15.233 21.2808 15.536 22.1468 15.536 23.122H16.536C16.536 21.9186 16.155 20.8339 15.4016 19.8851L14.6184 20.5069ZM15.536 23.122C15.536 25.2221 14.7216 26.843 13.0816 28.0379L13.6704 28.8461C15.5771 27.457 16.536 25.5313 16.536 23.122H15.536ZM13.0816 28.0379C11.3875 29.2721 9.57667 29.88 7.638 29.88V30.88C9.80333 30.88 11.8178 30.1959 13.6704 28.8461L13.0816 28.0379ZM7.638 29.88C5.64297 29.88 4.02021 29.5226 2.74456 28.8375L2.27144 29.7185C3.73179 30.5028 5.52903 30.88 7.638 30.88V29.88ZM2.75082 28.8409C2.12982 28.4959 1.6872 28.0782 1.39775 27.5958C1.10874 27.1141 0.956 26.5406 0.956 25.858H-0.044C-0.044 26.6954 0.145258 27.4519 0.540254 28.1102C0.934801 28.7678 1.51818 29.3001 2.26518 29.7151L2.75082 28.8409ZM0.956 25.858C0.956 25.1736 1.18743 24.5516 1.67369 23.977L0.910307 23.331C0.281901 24.0737 -0.044 24.9211 -0.044 25.858H0.956ZM1.67369 23.977C2.11662 23.4535 2.76146 23.166 3.686 23.166V22.166C2.5332 22.166 1.58204 22.5372 0.910307 23.331L1.67369 23.977ZM3.686 23.166C3.99093 23.166 4.25874 23.2497 4.5034 23.4191L5.0726 22.5969C4.65859 22.3103 4.19174 22.166 3.686 22.166V23.166ZM4.5034 23.4191C4.73018 23.5761 4.85606 23.7698 4.90571 24.0181L5.88629 23.8219C5.78395 23.3102 5.50449 22.8959 5.0726 22.5969L4.5034 23.4191ZM4.896 23.92C4.896 23.9427 4.89429 23.9587 4.8925 23.9691C4.89162 23.9743 4.89074 23.9779 4.89009 23.9803C4.88944 23.9826 4.88901 23.9837 4.88901 23.9837C4.88901 23.9837 4.8891 23.9835 4.88931 23.983C4.88951 23.9826 4.88983 23.9819 4.89026 23.9812C4.89114 23.9795 4.89238 23.9775 4.89405 23.9752C4.89759 23.9703 4.90156 23.9662 4.90491 23.9634C4.91796 23.9525 4.88288 23.99 4.712 23.99V24.99C4.99712 24.99 5.30404 24.9325 5.54509 24.7316C5.80361 24.5162 5.896 24.2135 5.896 23.92H4.896ZM4.712 23.99C4.22199 23.99 3.7612 24.0928 3.41853 24.3851C3.06062 24.6904 2.92 25.125 2.92 25.592H3.92C3.92 25.3244 3.99471 25.208 4.06747 25.1459C4.15546 25.0709 4.34068 24.99 4.712 24.99V23.99ZM2.92023 25.6071C2.95059 26.609 3.42626 27.4901 4.26352 28.2436L4.93248 27.5004C4.24974 26.8859 3.94008 26.247 3.91977 25.5769L2.92023 25.6071ZM4.26961 28.249C5.17289 29.0358 6.39319 29.398 7.866 29.398V28.398C6.55214 28.398 5.59378 28.0762 4.92639 27.495L4.26961 28.249ZM7.866 29.398C9.4109 29.398 10.7406 28.8686 11.8249 27.8121L11.1271 27.0959C10.2354 27.9647 9.15844 28.398 7.866 28.398V29.398ZM11.8204 27.8165C12.9306 26.7618 13.496 25.4664 13.496 23.958H12.496C12.496 25.1856 12.048 26.2209 11.1316 27.0915L11.8204 27.8165ZM13.496 23.958C13.496 22.9064 13.0967 21.9644 12.3359 21.1473L11.6041 21.8287C12.2113 22.481 12.496 23.1856 12.496 23.958H13.496ZM12.3359 21.1473C11.6105 20.3682 10.7411 19.7142 9.73287 19.1835L9.26713 20.0685C10.1842 20.5511 10.9615 21.1385 11.6041 21.8287L12.3359 21.1473ZM9.74184 19.1884C8.77755 18.6555 7.80062 18.1226 6.81105 17.5898L6.33695 18.4702C7.32338 19.0014 8.29712 19.5325 9.25816 20.0636L9.74184 19.1884ZM6.81584 17.5924C5.89819 17.0853 5.1197 16.4731 4.47565 15.7575L3.73235 16.4265C4.4563 17.2309 5.32448 17.9107 6.33216 18.4676L6.81584 17.5924ZM4.47565 15.7575C3.86867 15.0831 3.578 14.339 3.578 13.508H2.578C2.578 14.6023 2.97133 15.5809 3.73235 16.4265L4.47565 15.7575ZM3.578 13.508C3.578 11.9811 4.21437 10.7754 5.53121 9.85128L4.95679 9.03272C3.38563 10.1353 2.578 11.6403 2.578 13.508H3.578ZM5.52787 9.85361C6.91058 8.90001 8.47017 8.422 10.222 8.422V7.422C8.27516 7.422 6.51608 7.95732 4.96013 9.03039L5.52787 9.85361ZM10.222 8.422C11.3933 8.422 12.4429 8.66049 13.3804 9.12921L13.8276 8.23478C12.7384 7.69018 11.5334 7.422 10.222 7.422V8.422ZM13.3804 9.12921C13.8265 9.35226 14.1365 9.6198 14.3385 9.92042C14.5391 10.2188 14.6515 10.5766 14.6621 11.0122L15.6619 10.9878C15.6471 10.3847 15.4873 9.83689 15.1685 9.36258C14.8512 8.89053 14.3949 8.51841 13.8276 8.23478L13.3804 9.12921ZM14.662 11C14.662 11.5221 14.5329 11.9175 14.306 12.22L15.106 12.82C15.4871 12.3119 15.662 11.6939 15.662 11H14.662ZM14.306 12.22C14.1018 12.4922 13.8358 12.628 13.452 12.628V13.628C14.1322 13.628 14.7022 13.3584 15.106 12.82L14.306 12.22ZM13.452 12.628C13.2494 12.628 13.1763 12.588 13.1631 12.5786C13.1607 12.5769 13.1607 12.5766 13.1619 12.5779C13.163 12.5792 13.1635 12.5802 13.1633 12.5798C13.1631 12.5794 13.1556 12.5646 13.1529 12.5247L12.1551 12.5913C12.1759 12.9032 12.3062 13.1954 12.5819 13.3924C12.8347 13.573 13.1479 13.628 13.452 13.628V12.628ZM20.5016 18.182L20.8551 18.5356L20.8699 18.5208L20.8833 18.505L20.5016 18.182ZM21.8316 16.928L22.1518 17.3122L22.1608 17.3043L21.8316 16.928ZM23.0096 20.576L22.572 20.3342L22.5371 20.3972L22.5215 20.4675L23.0096 20.576ZM22.7816 22.552L22.2825 22.5226L23.251 22.7243L22.7816 22.552ZM24.9856 18.03L24.5808 17.7365L24.5808 17.7365L24.9856 18.03ZM30.4196 17.954L30.0321 18.2701L30.0363 18.2751L30.4196 17.954ZM29.8496 27.834L29.448 27.5361L29.4449 27.5403L29.8496 27.834ZM22.4016 29.126L22.6932 28.7198L21.9016 28.1515V29.126H22.4016ZM21.5656 40.184L22.0537 40.2925L22.0539 40.2914L21.5656 40.184ZM20.5396 41.324L20.218 40.9411L20.2097 40.9481L20.2017 40.9554L20.5396 41.324ZM18.5636 41.552L18.0864 41.7011L18.0864 41.7011L18.5636 41.552ZM19.9696 30.342L20.4536 30.4675L20.4649 30.424L20.4682 30.3791L19.9696 30.342ZM20.3116 22.514L19.8118 22.5006L19.8117 22.5051L20.3116 22.514ZM27.8356 27.302L28.2308 27.6083L28.2344 27.6036L27.8356 27.302ZM28.3676 19.892L27.9107 20.0951L27.9141 20.1028L27.9178 20.1105L28.3676 19.892ZM22.5536 26.086L22.0755 25.9395L22.0589 25.9937L22.0549 26.0504L22.5536 26.086ZM22.4776 27.758H21.9776V27.9651L22.124 28.1116L22.4776 27.758ZM20.8833 18.505C21.1338 18.2089 21.5508 17.8128 22.1517 17.3121L21.5115 16.5439C20.8964 17.0565 20.4267 17.4964 20.1199 17.859L20.8833 18.505ZM22.1608 17.3043C22.4493 17.0519 22.6918 16.8769 22.8904 16.7671C23.0942 16.6545 23.217 16.63 23.2756 16.63V15.63C22.9795 15.63 22.6843 15.7385 22.4068 15.8919C22.124 16.0481 21.8219 16.2721 21.5023 16.5517L22.1608 17.3043ZM23.2756 16.63C23.2309 16.63 23.1863 16.6088 23.1635 16.5871C23.1523 16.5764 23.1733 16.5913 23.2027 16.6752C23.2629 16.8472 23.3076 17.1589 23.3076 17.65H24.3076C24.3076 17.1278 24.2636 16.6794 24.1465 16.3448C24.0872 16.1753 23.9974 16.0002 23.8532 15.8629C23.6974 15.7146 23.4976 15.63 23.2756 15.63V16.63ZM23.3076 17.65C23.3076 18.5441 23.0678 19.437 22.572 20.3342L23.4472 20.8178C24.0154 19.7897 24.3076 18.7319 24.3076 17.65H23.3076ZM22.5215 20.4675C22.4114 20.9628 22.3336 21.653 22.2825 22.5226L23.2807 22.5814C23.3309 21.7284 23.4051 21.1012 23.4977 20.6845L22.5215 20.4675ZM23.251 22.7243C23.9792 20.7404 24.6951 19.2825 25.3904 18.3235L24.5808 17.7365C23.8067 18.8042 23.0533 20.3609 22.3122 22.3797L23.251 22.7243ZM25.3904 18.3235C26.0528 17.4098 26.801 17.01 27.6456 17.01V16.01C26.4129 16.01 25.3877 16.6235 24.5808 17.7365L25.3904 18.3235ZM27.6456 17.01C28.5333 17.01 29.324 17.402 30.0322 18.2701L30.807 17.6379C29.9445 16.5807 28.8858 16.01 27.6456 16.01V17.01ZM30.0363 18.2751C30.7098 19.0789 31.0976 20.4302 31.0976 22.438H32.0976C32.0976 20.3418 31.7001 18.7038 30.8029 17.6329L30.0363 18.2751ZM31.0976 22.438C31.0976 24.3615 30.547 26.0549 29.448 27.5361L30.2511 28.1319C31.4828 26.4718 32.0976 24.5678 32.0976 22.438H31.0976ZM29.4449 27.5403C28.3951 28.9868 27.0356 29.69 25.3276 29.69V30.69C27.3689 30.69 29.0241 29.8226 30.2542 28.1277L29.4449 27.5403ZM25.3276 29.69C24.4942 29.69 23.6187 29.3843 22.6932 28.7198L22.11 29.5322C23.1604 30.2863 24.2356 30.69 25.3276 30.69V29.69ZM21.9016 29.126C21.9016 33.9539 21.6228 37.5968 21.0773 40.0766L22.0539 40.2914C22.623 37.7046 22.9016 33.9755 22.9016 29.126H21.9016ZM21.0775 40.0755C21.0827 40.052 21.0661 40.1203 20.8994 40.3055C20.7505 40.471 20.5263 40.6822 20.218 40.9411L20.8612 41.7069C21.1862 41.4338 21.4497 41.189 21.6427 40.9745C21.818 40.7797 21.9978 40.544 22.0537 40.2925L21.0775 40.0755ZM20.2017 40.9554C19.9089 41.2239 19.671 41.4108 19.485 41.5277C19.2837 41.6542 19.2032 41.66 19.2096 41.66V42.66C19.4946 42.66 19.7751 42.5265 20.0172 42.3743C20.2746 42.2125 20.5623 41.9814 20.8775 41.6926L20.2017 40.9554ZM19.2096 41.66C19.1901 41.66 19.1819 41.657 19.18 41.6562C19.1783 41.6556 19.1729 41.6534 19.1628 41.6439C19.1391 41.6216 19.089 41.5571 19.0408 41.4029L18.0864 41.7011C18.1648 41.9522 18.2857 42.1917 18.4774 42.3721C18.6807 42.5634 18.9342 42.66 19.2096 42.66V41.66ZM19.0408 41.4029C18.9264 41.0366 18.8736 40.7073 18.8736 40.412H17.8736C17.8736 40.8261 17.9475 41.2567 18.0864 41.7011L19.0408 41.4029ZM18.8736 40.412C18.8736 37.863 19.3945 34.5526 20.4536 30.4675L19.4856 30.2165C18.4167 34.3394 17.8736 37.7424 17.8736 40.412H18.8736ZM20.4682 30.3791C20.6464 27.9869 20.7607 25.368 20.8115 22.5229L19.8117 22.5051C19.7611 25.3347 19.6475 27.9345 19.471 30.3049L20.4682 30.3791ZM20.8114 22.5274C20.8494 21.1094 20.8841 20.0425 20.9156 19.3249C20.9314 18.9653 20.9461 18.6979 20.9598 18.5193C20.9667 18.4288 20.9727 18.3686 20.9775 18.3332C20.9801 18.3142 20.9809 18.3126 20.979 18.321C20.9781 18.3246 20.9741 18.342 20.9652 18.3658C20.9626 18.3726 20.934 18.4567 20.8551 18.5356L20.148 17.8284C20.066 17.9105 20.0342 18.0004 20.0284 18.0159C20.0163 18.0483 20.009 18.077 20.0049 18.0946C19.9964 18.1312 19.9907 18.1686 19.9865 18.1995C19.9778 18.2638 19.97 18.3469 19.9627 18.4432C19.9478 18.6383 19.9325 18.9187 19.9166 19.2811C19.8847 20.0075 19.8498 21.0813 19.8118 22.5006L20.8114 22.5274ZM25.5556 29.322C26.5295 29.322 27.4188 28.656 28.2308 27.6083L27.4404 26.9957C26.6817 27.9747 26.051 28.322 25.5556 28.322V29.322ZM28.2344 27.6036C29.0949 26.4656 29.5136 25.0887 29.5136 23.502H28.5136C28.5136 24.9046 28.147 26.0611 27.4368 27.0004L28.2344 27.6036ZM29.5136 23.502C29.5136 21.9434 29.2942 20.6552 28.8173 19.6735L27.9178 20.1105C28.3024 20.9021 28.5136 22.0206 28.5136 23.502H29.5136ZM28.8245 19.6889C28.3772 18.6824 27.682 18.024 26.6956 18.024V19.024C27.1278 19.024 27.5474 19.2776 27.9107 20.0951L28.8245 19.6889ZM26.6956 18.024C26.2101 18.024 25.7774 18.2758 25.4045 18.6379C25.0294 19.002 24.6664 19.5229 24.3096 20.1743C23.5947 21.4795 22.8514 23.4084 22.0755 25.9395L23.0316 26.2325C23.8011 23.7222 24.5209 21.8702 25.1866 20.6547C25.5201 20.0458 25.8269 19.6214 26.101 19.3554C26.3772 19.0873 26.5731 19.024 26.6956 19.024V18.024ZM22.0549 26.0504C22.0039 26.7642 21.9776 27.3352 21.9776 27.758H22.9776C22.9776 27.3702 23.002 26.8265 23.0523 26.1216L22.0549 26.0504ZM22.124 28.1116C22.9555 28.943 24.1266 29.322 25.5556 29.322V28.322C24.2992 28.322 23.4184 27.9917 22.8311 27.4044L22.124 28.1116ZM42.593 29.582L42.2394 29.9356L42.259 29.9551L42.2806 29.9724L42.593 29.582ZM42.403 25.326L42.9025 25.3468L41.9387 25.1403L42.403 25.326ZM40.427 29.012L40.0389 28.6967L40.0377 28.6981L40.427 29.012ZM35.297 28.784L34.9045 29.0938L34.9086 29.0989L35.297 28.784ZM35.867 18.866L35.4654 18.5681L35.4623 18.5723L35.867 18.866ZM43.163 18.106L42.8009 18.4508L43.2145 18.8852L43.5673 18.4001L43.163 18.106ZM44.227 17.118L44.527 17.518L44.53 17.5157L44.227 17.118ZM45.899 19.436L45.4093 19.3347L45.4076 19.3428L45.4062 19.351L45.899 19.436ZM45.443 21.032L45.0027 20.7949L44.9884 20.8216L44.9773 20.8498L45.443 21.032ZM45.329 28.252V28.752H45.3436L45.3583 28.7511L45.329 28.252ZM47.115 26.656L47.5185 26.9513L47.5218 26.9466L47.115 26.656ZM49.357 22.59L48.9029 22.3805L48.9003 22.3863L49.357 22.59ZM49.889 23.806L49.4374 23.5913L49.4365 23.5932L49.889 23.806ZM37.919 19.626L37.5212 19.323L37.5201 19.3244L37.919 19.626ZM37.349 26.808L36.8919 27.0111L36.8968 27.0215L37.349 26.808ZM42.707 21.906L43.1731 22.0868L43.1954 22.0293L43.2031 21.968L42.707 21.906ZM42.783 20.88L42.2854 20.8302L42.2843 20.842L42.2836 20.8537L42.783 20.88ZM42.897 19.74L43.3945 19.7898L43.4102 19.6326L43.3327 19.4949L42.897 19.74ZM41.681 18.6L41.3993 19.0131L41.41 19.0204L41.421 19.0271L41.681 18.6ZM44.835 29.69C43.904 29.69 43.2875 29.4973 42.9053 29.1916L42.2806 29.9724C42.9118 30.4774 43.7899 30.69 44.835 30.69V29.69ZM42.9465 29.2284C42.9641 29.2461 42.9222 29.2108 42.8837 29.0184C42.8484 28.8419 42.827 28.5901 42.827 28.252H41.827C41.827 28.6233 41.8498 28.9478 41.9032 29.2146C41.9534 29.4656 42.0445 29.7406 42.2394 29.9356L42.9465 29.2284ZM42.827 28.252C42.827 27.5273 42.852 26.5597 42.9025 25.3468L41.9034 25.3052C41.8526 26.5243 41.827 27.5074 41.827 28.252H42.827ZM41.9387 25.1403C41.2876 26.768 40.6512 27.9431 40.0389 28.6967L40.815 29.3273C41.52 28.4596 42.2009 27.1774 42.8672 25.5117L41.9387 25.1403ZM40.0377 28.6981C39.4998 29.3652 38.8199 29.69 37.957 29.69V30.69C39.1207 30.69 40.0874 30.2295 40.8162 29.3259L40.0377 28.6981ZM37.957 29.69C37.1237 29.69 36.3705 29.3142 35.6853 28.4691L34.9086 29.0989C35.7434 30.1285 36.7636 30.69 37.957 30.69V29.69ZM35.6894 28.4742C35.0317 27.6411 34.657 26.2816 34.657 24.3H33.657C33.657 26.3717 34.0422 28.0016 34.9045 29.0938L35.6894 28.4742ZM34.657 24.3C34.657 22.3471 35.1972 20.6399 36.2716 19.1597L35.4623 18.5723C34.2567 20.2334 33.657 22.1489 33.657 24.3H34.657ZM36.2685 19.1639C37.3443 17.7139 38.7184 17.01 40.427 17.01V16.01C38.3861 16.01 36.7203 16.8767 35.4654 18.5681L36.2685 19.1639ZM40.427 17.01C41.0245 17.01 41.8116 17.4121 42.8009 18.4508L43.525 17.7612C42.4876 16.6719 41.4508 16.01 40.427 16.01V17.01ZM43.5673 18.4001C43.7257 18.1823 44.0327 17.8887 44.527 17.518L43.927 16.718C43.4079 17.1073 43.0056 17.4723 42.7586 17.8119L43.5673 18.4001ZM44.53 17.5157C45.0414 17.1261 45.3732 17.01 45.557 17.01V16.01C45.0314 16.01 44.4765 16.2993 43.9239 16.7203L44.53 17.5157ZM45.557 17.01C45.5363 17.01 45.5045 16.9998 45.4837 16.9823C45.4721 16.9724 45.4911 16.9829 45.5194 17.0546C45.5792 17.2062 45.627 17.4909 45.627 17.954H46.627C46.627 17.4544 46.5797 17.0172 46.4495 16.6874C46.3828 16.5184 46.283 16.3484 46.1289 16.2182C45.9656 16.0803 45.7676 16.01 45.557 16.01V17.01ZM45.627 17.954C45.627 18.1478 45.563 18.5919 45.4093 19.3347L46.3886 19.5373C46.5389 18.8107 46.627 18.2669 46.627 17.954H45.627ZM45.4062 19.351C45.2815 20.0744 45.14 20.5399 45.0027 20.7949L45.8832 21.269C46.1005 20.8654 46.2631 20.2669 46.3917 19.521L45.4062 19.351ZM44.9773 20.8498C44.8966 21.0562 44.8409 21.3463 44.7974 21.6828C44.7525 22.0305 44.7161 22.4674 44.6872 22.9899C44.6295 24.0356 44.601 25.449 44.601 27.226H45.601C45.601 25.4564 45.6294 24.064 45.6857 23.0451C45.7138 22.5353 45.7486 22.1251 45.7892 21.8109C45.8312 21.4856 45.8753 21.2991 45.9086 21.2142L44.9773 20.8498ZM44.601 27.226C44.601 27.5769 44.6196 27.8779 44.6699 28.104C44.6942 28.2134 44.7345 28.3473 44.8132 28.4652C44.8984 28.5931 45.0679 28.752 45.329 28.752V27.752C45.514 27.752 45.617 27.8682 45.6452 27.9105C45.6669 27.943 45.6597 27.9486 45.646 27.887C45.6203 27.7711 45.601 27.5591 45.601 27.226H44.601ZM45.3583 28.7511C45.7483 28.7282 46.1124 28.4921 46.4316 28.2068C46.7663 27.9078 47.1287 27.4839 47.5185 26.9513L46.7114 26.3607C46.3412 26.8667 46.026 27.2282 45.7653 27.4612C45.4892 27.7079 45.3403 27.7505 45.2996 27.7529L45.3583 28.7511ZM47.5218 26.9466C48.307 25.8473 49.07 24.4604 49.8136 22.7937L48.9003 22.3863C48.1746 24.013 47.4429 25.3367 46.7081 26.3654L47.5218 26.9466ZM49.8109 22.7995C50.1896 21.9791 50.4874 21.375 50.7063 20.9797C50.817 20.78 50.8996 20.648 50.9562 20.5714C50.9856 20.5316 50.996 20.5232 50.9888 20.5297C50.9848 20.5333 50.9653 20.5507 50.931 20.5693C50.8988 20.5868 50.8263 20.62 50.725 20.62V19.62C50.5056 19.62 50.3592 19.7509 50.3187 19.7875C50.2544 19.8454 50.1984 19.9142 50.1517 19.9774C50.0563 20.1066 49.9489 20.2833 49.8316 20.4952C49.5945 20.9233 49.2843 21.5542 48.903 22.3805L49.8109 22.7995ZM50.725 20.62C50.7179 20.62 50.6266 20.6149 50.5482 20.5253C50.4809 20.4484 50.491 20.3846 50.491 20.424H51.491C51.491 20.2608 51.4567 20.045 51.3007 19.8667C51.1336 19.6758 50.9093 19.62 50.725 19.62V20.62ZM50.491 20.424C50.491 21.0086 50.1731 22.0438 49.4374 23.5913L50.3405 24.0207C51.0742 22.4775 51.491 21.258 51.491 20.424H50.491ZM49.4365 23.5932C48.4421 25.7078 47.5398 27.2639 46.7324 28.2836C45.9006 29.3343 45.2686 29.69 44.835 29.69V30.69C45.7693 30.69 46.6636 29.9817 47.5165 28.9044C48.3938 27.7961 49.3345 26.1602 50.3414 24.0188L49.4365 23.5932ZM40.199 17.53C39.2388 17.53 38.3484 18.2374 37.5212 19.323L38.3167 19.929C39.1109 18.8866 39.7404 18.53 40.199 18.53V17.53ZM37.5201 19.3244C36.6632 20.4578 36.241 21.7948 36.241 23.312H37.241C37.241 21.9919 37.6041 20.8715 38.3178 19.9276L37.5201 19.3244ZM36.241 23.312C36.241 24.7733 36.449 26.0142 36.892 27.0111L37.8059 26.6049C37.4383 25.7778 37.241 24.6881 37.241 23.312H36.241ZM36.8968 27.0215C37.3656 28.0141 38.0574 28.676 39.021 28.676V27.676C38.6165 27.676 38.1937 27.4259 37.8011 26.5945L36.8968 27.0215ZM39.021 28.676C39.4347 28.676 39.7911 28.4253 40.0773 28.1355C40.3771 27.832 40.684 27.4002 41.0005 26.8619C41.6354 25.7819 42.3594 24.1846 43.1731 22.0868L42.2408 21.7252C41.4332 23.8074 40.7322 25.3451 40.1384 26.3551C39.8405 26.8618 39.5822 27.2137 39.3659 27.4327C39.1359 27.6655 39.0252 27.676 39.021 27.676V28.676ZM43.2031 21.968C43.2309 21.7458 43.2569 21.3879 43.2823 20.9063L42.2836 20.8537C42.2583 21.3347 42.2337 21.6609 42.2108 21.844L43.2031 21.968ZM43.2805 20.9298C43.3311 20.4231 43.3691 20.0431 43.3945 19.7898L42.3994 19.6902C42.3741 19.9436 42.3361 20.3236 42.2854 20.8302L43.2805 20.9298ZM43.3327 19.4949C43.0476 18.9879 42.565 18.5528 41.9409 18.1729L41.421 19.0271C41.9623 19.3566 42.2903 19.6814 42.4612 19.9851L43.3327 19.4949ZM41.9626 18.1869C41.3657 17.7799 40.7723 17.53 40.199 17.53V18.53C40.487 18.53 40.8815 18.6601 41.3993 19.0131L41.9626 18.1869ZM56.6458 20.766L56.1519 20.6885L56.1458 20.727V20.766H56.6458ZM56.9498 18.828L57.4438 18.9055L57.4498 18.867V18.828H56.9498ZM53.5678 19.854L54.0167 20.0743L54.0182 20.0711L53.5678 19.854ZM53.3398 27.036L52.9218 27.3104L52.9259 27.3164L53.3398 27.036ZM57.3678 27.682L57.1159 27.2501L57.1159 27.2501L57.3678 27.682ZM59.0398 26.162L59.4361 26.4669L59.4372 26.4655L59.0398 26.162ZM61.7758 21.412L61.3189 21.2089L61.3163 21.215L61.7758 21.412ZM62.2318 20.424L61.8078 20.159L61.7952 20.1791L61.7846 20.2004L62.2318 20.424ZM60.4838 26.124L60.0627 25.8545L60.0598 25.859L60.4838 26.124ZM59.0018 28.062L59.3748 28.395L59.3755 28.3942L59.0018 28.062ZM50.9458 28.67L50.5375 28.9588L50.5458 28.97L50.9458 28.67ZM51.7058 18.79L51.3217 18.4699L51.3212 18.4705L51.7058 18.79ZM58.3938 17.156L58.0505 17.5195L58.0609 17.5293L58.0718 17.5385L58.3938 17.156ZM58.5838 20.766L58.1813 20.4694L58.1813 20.4694L58.5838 20.766ZM57.1398 20.8435L57.4438 18.9055L56.4559 18.7505L56.1519 20.6885L57.1398 20.8435ZM57.4498 18.828C57.4498 18.4338 57.3214 18.0733 57.0785 17.761L56.2892 18.375C56.4009 18.5187 56.4498 18.6648 56.4498 18.828H57.4498ZM57.0785 17.761C56.8105 17.4164 56.4392 17.226 55.9998 17.226V18.226C56.1177 18.226 56.2025 18.2636 56.2892 18.375L57.0785 17.761ZM55.9998 17.226C54.7622 17.226 53.8242 18.1709 53.1174 19.6368L54.0182 20.0711C54.6794 18.6997 55.3628 18.226 55.9998 18.226V17.226ZM53.119 19.6337C52.408 21.0819 52.0418 22.4997 52.0418 23.882H53.0418C53.0418 22.6803 53.3596 21.4127 54.0167 20.0743L53.119 19.6337ZM52.0418 23.882C52.0418 25.2398 52.3212 26.3952 52.9218 27.3103L53.7579 26.7617C53.2944 26.0555 53.0418 25.1082 53.0418 23.882H52.0418ZM52.9259 27.3164C53.5248 28.2006 54.3103 28.714 55.2778 28.714V27.714C54.7254 27.714 54.2189 27.4421 53.7538 26.7556L52.9259 27.3164ZM55.2778 28.714C56.1412 28.714 56.9267 28.5182 57.6198 28.1139L57.1159 27.2501C56.5929 27.5552 55.9851 27.714 55.2778 27.714V28.714ZM57.6198 28.1139C58.2928 27.7213 58.897 27.1677 59.4361 26.4669L58.6435 25.8571C58.1693 26.4736 57.6589 26.9334 57.1159 27.2501L57.6198 28.1139ZM59.4372 26.4655C60.5286 25.0362 61.4608 23.4165 62.2354 21.609L61.3163 21.215C60.5709 22.9542 59.679 24.5011 58.6424 25.8585L59.4372 26.4655ZM62.2327 21.6151C62.4351 21.1598 62.5832 20.8394 62.679 20.6476L61.7846 20.2004C61.6778 20.414 61.5219 20.7522 61.3189 21.2089L62.2327 21.6151ZM62.6558 20.689C62.6778 20.6538 62.6964 20.6285 62.7109 20.6111C62.7181 20.6025 62.7238 20.5964 62.7279 20.5923C62.7299 20.5903 62.7315 20.5888 62.7326 20.5878C62.7336 20.5869 62.7342 20.5864 62.7342 20.5864C62.7342 20.5864 62.7335 20.5869 62.7323 20.5878C62.7311 20.5887 62.7292 20.5899 62.7266 20.5915C62.7214 20.5946 62.7134 20.5989 62.7025 20.6032C62.6797 20.6124 62.6485 20.62 62.6118 20.62V19.62C62.2043 19.62 61.9477 19.9352 61.8078 20.159L62.6558 20.689ZM62.6118 20.62C62.5948 20.62 62.5563 20.6171 62.5085 20.5959C62.4578 20.5734 62.4142 20.5378 62.3828 20.496C62.3273 20.422 62.3398 20.3707 62.3398 20.424H63.3398C63.3398 20.2746 63.3144 20.0714 63.1828 19.896C63.031 19.6936 62.8098 19.62 62.6118 19.62V20.62ZM62.3398 20.424C62.3398 21.151 62.084 22.0715 61.5186 23.2024L62.413 23.6496C63.0129 22.4498 63.3398 21.369 63.3398 20.424H62.3398ZM61.5186 23.2024C60.939 24.3616 60.4541 25.2429 60.0627 25.8545L60.905 26.3935C61.3242 25.7385 61.8273 24.8211 62.413 23.6496L61.5186 23.2024ZM60.0598 25.859C59.6981 26.4378 59.2223 27.0613 58.6281 27.7298L59.3755 28.3942C59.9973 27.6947 60.5096 27.0262 60.9078 26.389L60.0598 25.859ZM58.6289 27.729C57.4569 29.0415 56.0092 29.69 54.2518 29.69V30.69C56.2944 30.69 58.0134 29.9198 59.3748 28.395L58.6289 27.729ZM54.2518 29.69C52.94 29.69 51.9973 29.2386 51.3458 28.37L50.5458 28.97C51.4144 30.1281 52.6756 30.69 54.2518 30.69V29.69ZM51.354 28.3813C50.6733 27.4189 50.3438 26.4164 50.3438 25.364H49.3438C49.3438 26.6423 49.749 27.8438 50.5376 28.9587L51.354 28.3813ZM50.3438 25.364C50.3438 22.5379 50.9525 20.4797 52.0905 19.1094L51.3212 18.4705C49.9765 20.0896 49.3438 22.4141 49.3438 25.364H50.3438ZM52.0899 19.1101C53.2646 17.7004 54.7216 17.01 56.4938 17.01V16.01C54.4154 16.01 52.6803 16.8395 51.3217 18.4699L52.0899 19.1101ZM56.4938 17.01C57.2155 17.01 57.7121 17.1999 58.0505 17.5195L58.7371 16.7925C58.1636 16.2508 57.3935 16.01 56.4938 16.01V17.01ZM58.0718 17.5385C58.4631 17.868 58.6158 18.2049 58.6158 18.562H59.6158C59.6158 17.8551 59.2872 17.2547 58.7159 16.7735L58.0718 17.5385ZM58.6158 18.562C58.6158 19.5068 58.4432 20.1139 58.1813 20.4694L58.9864 21.0626C59.4338 20.4554 59.6158 19.5932 59.6158 18.562H58.6158ZM58.1813 20.4694C57.9016 20.8489 57.6098 20.988 57.2918 20.988V21.988C57.9872 21.988 58.5567 21.6457 58.9864 21.0626L58.1813 20.4694ZM57.2918 20.988C57.2295 20.988 57.1967 20.9791 57.1838 20.9743C57.1738 20.9706 57.1761 20.9698 57.1799 20.9741C57.1865 20.9814 57.1458 20.9425 57.1458 20.766H56.1458C56.1458 21.0709 56.2128 21.3929 56.4347 21.6409C56.6661 21.8995 56.9841 21.988 57.2918 21.988V20.988ZM63.1109 28.594L62.7142 28.8984L62.7177 28.9029L63.1109 28.594ZM63.6049 18.638L63.2185 18.3206L63.2185 18.3206L63.6049 18.638ZM70.2549 17.232L69.928 17.6105L69.9383 17.619L70.2549 17.232ZM69.1529 22.97L69.4652 23.3604L69.4662 23.3597L69.1529 22.97ZM64.4789 24.566L64.4652 24.0662L63.9265 24.0809L63.9815 24.617L64.4789 24.566ZM65.4669 27.15L65.0685 27.4522L65.0744 27.4599L65.0805 27.4674L65.4669 27.15ZM69.5329 27.682L69.2809 27.2501L69.2809 27.2501L69.5329 27.682ZM71.2049 26.162L71.6012 26.4669L71.6023 26.4655L71.2049 26.162ZM73.9409 21.412L73.4839 21.2089L73.4813 21.215L73.9409 21.412ZM74.3969 20.424L73.9729 20.159L73.9603 20.1791L73.9497 20.2004L74.3969 20.424ZM72.6869 26.124L73.1124 26.3865L73.1137 26.3844L72.6869 26.124ZM64.4789 23.654L63.9792 23.6371L63.9584 24.2493L64.5624 24.147L64.4789 23.654ZM67.7469 22.21L67.3933 21.8564L67.387 21.8629L67.7469 22.21ZM65.4669 19.588L65.9141 19.8116L65.9159 19.8079L65.4669 19.588ZM66.4929 29.69C65.219 29.69 64.24 29.2218 63.504 28.2851L62.7177 28.9029C63.6537 30.0942 64.9294 30.69 66.4929 30.69V29.69ZM63.5075 28.2896C62.7383 27.2872 62.3569 26.1655 62.3569 24.908H61.3569C61.3569 26.3865 61.8115 27.7221 62.7142 28.8984L63.5075 28.2896ZM62.3569 24.908C62.3569 22.2064 62.9284 20.2492 63.9912 18.9554L63.2185 18.3206C61.9506 19.8641 61.3569 22.0869 61.3569 24.908H62.3569ZM63.9912 18.9554C65.0608 17.6533 66.4259 17.01 68.1269 17.01V16.01C66.1292 16.01 64.4796 16.7854 63.2185 18.3206L63.9912 18.9554ZM68.1269 17.01C68.8897 17.01 69.4766 17.2205 69.9281 17.6104L70.5817 16.8536C69.9185 16.2808 69.0867 16.01 68.1269 16.01V17.01ZM69.9383 17.619C70.364 17.9673 70.5909 18.45 70.5909 19.132H71.5909C71.5909 18.1927 71.2604 17.4087 70.5715 16.845L69.9383 17.619ZM70.5909 19.132C70.5909 20.4855 70.0258 21.6267 68.8396 22.5803L69.4662 23.3597C70.864 22.2359 71.5909 20.8185 71.5909 19.132H70.5909ZM68.8405 22.5796C67.6705 23.5156 66.2217 24.0181 64.4652 24.0662L64.4926 25.0658C66.4347 25.0126 68.1019 24.4511 69.4652 23.3604L68.8405 22.5796ZM63.9815 24.617C64.0914 25.6889 64.4515 26.6388 65.0685 27.4522L65.8652 26.8478C65.3676 26.1918 65.069 25.4191 64.9763 24.515L63.9815 24.617ZM65.0805 27.4674C65.7364 28.2658 66.54 28.714 67.4809 28.714V27.714C66.9017 27.714 66.3627 27.4529 65.8532 26.8326L65.0805 27.4674ZM67.4809 28.714C68.3221 28.714 69.0943 28.5167 69.7848 28.1139L69.2809 27.2501C68.7555 27.5566 68.1596 27.714 67.4809 27.714V28.714ZM69.7848 28.1139C70.4578 27.7213 71.0621 27.1677 71.6012 26.4669L70.8086 25.8571C70.3344 26.4736 69.8239 26.9334 69.2809 27.2501L69.7848 28.1139ZM71.6023 26.4655C72.6937 25.0362 73.6258 23.4165 74.4004 21.609L73.4813 21.215C72.7359 22.9542 71.8441 24.5011 70.8075 25.8585L71.6023 26.4655ZM74.3978 21.6151C74.6001 21.1598 74.7482 20.8394 74.8441 20.6476L73.9497 20.2004C73.8429 20.414 73.687 20.7522 73.484 21.2089L74.3978 21.6151ZM74.8209 20.689C74.8429 20.6538 74.8615 20.6285 74.876 20.6111C74.8831 20.6025 74.8888 20.5964 74.8929 20.5923C74.895 20.5903 74.8965 20.5888 74.8976 20.5878C74.8987 20.5869 74.8992 20.5864 74.8992 20.5864C74.8992 20.5864 74.8986 20.5869 74.8974 20.5878C74.8961 20.5887 74.8942 20.5899 74.8916 20.5915C74.8865 20.5946 74.8784 20.5989 74.8676 20.6032C74.8448 20.6124 74.8136 20.62 74.7769 20.62V19.62C74.3694 19.62 74.1128 19.9352 73.9729 20.159L74.8209 20.689ZM74.7769 20.62C74.7599 20.62 74.7214 20.6171 74.6736 20.5959C74.6229 20.5734 74.5792 20.5378 74.5479 20.496C74.4924 20.422 74.5049 20.3707 74.5049 20.424H75.5049C75.5049 20.2746 75.4794 20.0714 75.3479 19.896C75.1961 19.6936 74.9749 19.62 74.7769 19.62V20.62ZM74.5049 20.424C74.5049 20.9651 74.3374 21.688 73.9622 22.6106C73.5894 23.5274 73.0243 24.6107 72.26 25.8636L73.1137 26.3844C73.8948 25.1039 74.4887 23.9706 74.8885 22.9874C75.286 22.01 75.5049 21.1496 75.5049 20.424H74.5049ZM72.2613 25.8615C70.6498 28.4742 68.7255 29.69 66.4929 29.69V30.69C69.1749 30.69 71.38 29.1951 73.1124 26.3865L72.2613 25.8615ZM64.5624 24.147C66.1092 23.8848 67.3183 23.3748 68.1068 22.5571L67.387 21.8629C66.8074 22.4639 65.8379 22.9165 64.3953 23.161L64.5624 24.147ZM68.1004 22.5636C68.9166 21.7474 69.3109 20.6889 69.3109 19.436H68.3109C68.3109 20.4631 67.9958 21.2539 67.3933 21.8564L68.1004 22.5636ZM69.3109 19.436C69.3109 18.8283 69.2159 18.2864 68.9557 17.8826C68.6711 17.4412 68.2292 17.226 67.7089 17.226V18.226C67.9232 18.226 68.0323 18.2958 68.1151 18.4244C68.2222 18.5906 68.3109 18.9037 68.3109 19.436H69.3109ZM67.7089 17.226C66.5368 17.226 65.6581 18.0609 65.0178 19.3681L65.9159 19.8079C66.4917 18.6324 67.1076 18.226 67.7089 18.226V17.226ZM65.0197 19.3644C64.3764 20.6509 64.032 22.0778 63.9792 23.6371L64.9786 23.6709C65.0271 22.2409 65.3413 20.9571 65.9141 19.8116L65.0197 19.3644ZM79.7537 18.372L79.2581 18.3059L79.2537 18.3388V18.372H79.7537ZM79.8297 17.802L80.3253 17.8681L80.3297 17.8352V17.802H79.8297ZM77.5497 18.144L77.9534 18.4391L77.9586 18.4317L77.5497 18.144ZM76.9037 20.804L77.394 20.7059L77.394 20.7059L76.9037 20.804ZM77.0557 21.45L76.5749 21.5874L76.5877 21.632L76.6085 21.6736L77.0557 21.45ZM77.3977 22.02L76.9817 22.2973L76.9817 22.2973L77.3977 22.02ZM77.7397 22.514L77.3396 22.8141L77.3465 22.8229L77.7397 22.514ZM78.1577 23.046L78.5673 22.7593L78.5594 22.748L78.5508 22.7371L78.1577 23.046ZM78.5377 23.54L78.1841 23.8936L78.5058 24.2152L78.8563 23.9253L78.5377 23.54ZM83.2497 19.892L83.5461 20.2947L83.5497 20.292L83.2497 19.892ZM83.6297 20.842L83.8994 21.2631L83.907 21.258L83.6297 20.842ZM79.0317 24.224L78.7096 23.8415L78.3628 24.1336L78.6197 24.5073L79.0317 24.224ZM78.7657 29.354L79.1064 29.7199L79.1064 29.7199L78.7657 29.354ZM76.7517 25.136L77.0998 25.4949L77.4327 25.1721L77.1358 24.8159L76.7517 25.136ZM76.0677 24.414L75.7013 24.7542L75.7076 24.761L75.7141 24.7676L76.0677 24.414ZM75.3077 23.578L74.9077 23.878L74.919 23.8931L74.9314 23.9073L75.3077 23.578ZM74.7377 22.78L74.3165 23.0495L74.3214 23.0572L74.3266 23.0646L74.7377 22.78ZM75.5737 17.118L75.9176 17.481L75.9225 17.4762L75.5737 17.118ZM80.2477 16.282L79.8941 16.6356L79.9002 16.6416L79.9065 16.6475L80.2477 16.282ZM77.3217 25.858L77.735 25.5766L77.3951 25.0774L76.9681 25.5044L77.3217 25.858ZM77.7017 28.784L78.0858 29.1041L78.0957 29.0922L78.1049 29.0797L77.7017 28.784ZM80.2493 18.4381L80.3253 17.8681L79.3341 17.7359L79.2581 18.3059L80.2493 18.4381ZM80.3297 17.802C80.3297 17.4751 80.2307 17.1452 79.9556 16.9094C79.6952 16.6862 79.3575 16.618 79.0317 16.618V17.618C79.2379 17.618 79.2992 17.6638 79.3048 17.6686C79.3058 17.6695 79.3089 17.6714 79.3138 17.684C79.3199 17.6996 79.3297 17.7355 79.3297 17.802H80.3297ZM79.0317 16.618C78.279 16.618 77.6544 17.1263 77.1408 17.8563L77.9586 18.4317C78.4076 17.7937 78.7711 17.618 79.0317 17.618V16.618ZM77.146 17.849C76.65 18.5277 76.3277 19.1817 76.3277 19.778H77.3277C77.3277 19.5129 77.4867 19.0776 77.9534 18.439L77.146 17.849ZM76.3277 19.778C76.3277 20.2229 76.3534 20.6022 76.4134 20.9021L77.394 20.7059C77.3526 20.4991 77.3277 20.1944 77.3277 19.778H76.3277ZM76.4134 20.9021C76.4657 21.1638 76.5194 21.3931 76.5749 21.5874L77.5364 21.3126C77.4906 21.1522 77.443 20.9508 77.394 20.7059L76.4134 20.9021ZM76.6085 21.6736C76.6976 21.8518 76.8242 22.0612 76.9817 22.2973L77.8137 21.7426C77.6672 21.5228 77.5658 21.3522 77.5029 21.2264L76.6085 21.6736ZM76.9817 22.2973C77.1343 22.5263 77.2548 22.7008 77.3397 22.814L78.1397 22.214C78.0726 22.1245 77.965 21.9697 77.8137 21.7426L76.9817 22.2973ZM77.3465 22.8229L77.7645 23.3549L78.5508 22.7371L78.1328 22.2051L77.3465 22.8229ZM77.7481 23.3327C77.9219 23.5811 78.0723 23.7818 78.1841 23.8936L78.8912 23.1864C78.851 23.1462 78.7481 23.0176 78.5673 22.7593L77.7481 23.3327ZM78.8563 23.9253C80.1645 22.8435 81.7274 21.6334 83.5461 20.2947L82.9533 19.4893C81.124 20.8359 79.5455 22.0578 78.2191 23.1547L78.8563 23.9253ZM83.5497 20.292C83.5645 20.2809 83.5732 20.278 83.5917 20.278V19.278C83.3568 19.278 83.1376 19.3511 82.9497 19.492L83.5497 20.292ZM83.5917 20.278C83.6105 20.278 83.6054 20.2807 83.5858 20.2736C83.5634 20.2653 83.5333 20.2481 83.5067 20.2188C83.454 20.1608 83.4717 20.1226 83.4717 20.196H84.4717C84.4717 19.9908 84.4261 19.7435 84.2467 19.5462C84.059 19.3398 83.8084 19.278 83.5917 19.278V20.278ZM83.4717 20.196C83.4717 20.3109 83.4384 20.3686 83.3523 20.426L83.907 21.258C84.277 21.0114 84.4717 20.6384 84.4717 20.196H83.4717ZM83.36 20.421C81.7207 21.4711 80.1705 22.6113 78.7096 23.8415L79.3538 24.6065C80.7808 23.4047 82.296 22.2902 83.8994 21.263L83.36 20.421ZM78.6197 24.5073C79.121 25.2365 79.3677 26.0248 79.3677 26.884H80.3677C80.3677 25.8178 80.057 24.8328 79.4437 23.9407L78.6197 24.5073ZM79.3677 26.884C79.3677 27.7013 79.0629 28.3941 78.425 28.9881L79.1064 29.7199C79.9378 28.9459 80.3677 27.992 80.3677 26.884H79.3677ZM78.425 28.9881C77.7955 29.5741 76.9857 29.88 75.9537 29.88V30.88C77.2016 30.88 78.2665 30.5019 79.1064 29.7199L78.425 28.9881ZM75.9537 29.88C75.4552 29.88 75.1742 29.7606 75.0166 29.61C74.8633 29.4635 74.7437 29.2077 74.7437 28.746H73.7437C73.7437 29.3737 73.9091 29.9348 74.3258 30.333C74.7382 30.7271 75.3121 30.88 75.9537 30.88V29.88ZM74.7437 28.746C74.7437 28.5112 74.8783 28.1199 75.2813 27.5398C75.6734 26.9754 76.2751 26.2946 77.0998 25.4949L76.4036 24.777C75.5563 25.5987 74.904 26.3303 74.4601 26.9692C74.0271 27.5924 73.7437 28.1954 73.7437 28.746H74.7437ZM77.1358 24.8159C76.9932 24.6448 76.7509 24.3901 76.4212 24.0604L75.7141 24.7676C76.0432 25.0966 76.2568 25.3232 76.3676 25.4561L77.1358 24.8159ZM76.4341 24.0738C76.1059 23.7204 75.8565 23.4459 75.684 23.2487L74.9314 23.9073C75.1136 24.1154 75.3708 24.3983 75.7013 24.7542L76.4341 24.0738ZM75.7077 23.278C75.561 23.0824 75.375 22.8221 75.1488 22.4954L74.3266 23.0646C74.5564 23.3965 74.7504 23.6682 74.9077 23.878L75.7077 23.278ZM75.1588 22.5105C74.8037 21.9556 74.6297 21.3648 74.6297 20.728H73.6297C73.6297 21.5605 73.861 22.3377 74.3165 23.0495L75.1588 22.5105ZM74.6297 20.728C74.6297 19.3514 75.0677 18.2861 75.9176 17.481L75.2298 16.755C74.1543 17.7739 73.6297 19.1152 73.6297 20.728H74.6297ZM75.9225 17.4762C76.8148 16.6074 77.7216 16.212 78.6517 16.212V15.212C77.4031 15.212 76.2579 15.754 75.2249 16.7598L75.9225 17.4762ZM78.6517 16.212C79.2411 16.212 79.6317 16.3731 79.8941 16.6356L80.6012 15.9284C80.1037 15.4309 79.4303 15.212 78.6517 15.212V16.212ZM79.9065 16.6475C80.2238 16.9436 80.3177 17.1878 80.3177 17.384H81.3177C81.3177 16.8202 81.0316 16.3297 80.5888 15.9165L79.9065 16.6475ZM80.3177 17.384C80.3177 17.7913 80.2673 18.0254 80.2133 18.1401C80.1894 18.1909 80.1754 18.1953 80.1867 18.1872C80.2027 18.1759 80.2171 18.176 80.2097 18.176V19.176C80.405 19.176 80.5967 19.1223 80.7647 19.0033C80.928 18.8876 81.0407 18.7304 81.1181 18.5659C81.2668 18.25 81.3177 17.838 81.3177 17.384H80.3177ZM80.2097 18.176C80.1599 18.176 80.1312 18.1717 80.1187 18.1689C80.1059 18.1661 80.1196 18.167 80.145 18.184C80.1738 18.2032 80.2066 18.2358 80.2294 18.2814C80.2512 18.325 80.2537 18.3599 80.2537 18.372H79.2537C79.2537 18.619 79.3582 18.8613 79.5903 19.016C79.7867 19.1469 80.0179 19.176 80.2097 19.176V18.176ZM76.9681 25.5044C76.4458 26.0268 76.0369 26.5168 75.7559 26.9735C75.4776 27.4256 75.3017 27.8823 75.3017 28.328H76.3017C76.3017 28.1404 76.3791 27.8688 76.6075 27.4975C76.8332 27.1309 77.1843 26.7025 77.6752 26.2116L76.9681 25.5044ZM75.3017 28.328C75.3017 28.7144 75.4034 29.0947 75.6929 29.3727C75.9787 29.647 76.3629 29.74 76.7517 29.74V28.74C76.5071 28.74 76.4164 28.681 76.3855 28.6513C76.3583 28.6253 76.3017 28.5496 76.3017 28.328H75.3017ZM76.7517 29.74C77.287 29.74 77.742 29.5167 78.0858 29.1041L77.3176 28.4639C77.1547 28.6593 76.9764 28.74 76.7517 28.74V29.74ZM78.1049 29.0797C78.8507 28.0627 78.5907 26.8335 77.735 25.5766L76.9084 26.1394C77.674 27.2638 77.6673 27.9853 77.2985 28.4883L78.1049 29.0797ZM91.686 23.806L91.2344 23.5913L91.2335 23.5932L91.686 23.806ZM84.162 29.696L83.7509 29.9806L83.758 29.9909L83.7657 30.0009L84.162 29.696ZM84.352 18.41L84.8494 18.4605L84.8953 18.0088L84.45 17.9197L84.352 18.41ZM82.338 16.852H81.838V16.8761L81.8403 16.9002L82.338 16.852ZM84.542 16.548L84.3184 16.9952L84.9505 17.3113L85.0381 16.61L84.542 16.548ZM85.34 11L85.8335 11.08L85.8339 11.078L85.34 11ZM86.062 9.632L86.4261 9.97468L86.4261 9.97468L86.062 9.632ZM87.202 17.194L86.704 17.1493L86.6451 17.8056L87.293 17.6856L87.202 17.194ZM89.444 16.434L89.2371 15.9788L89.2318 15.9813L89.444 16.434ZM91.61 16.282H91.11V16.3069L91.1125 16.3317L91.61 16.282ZM90.204 17.346L90.4082 17.8025L90.418 17.7979L90.204 17.346ZM87.088 18.334L86.9878 17.8441L86.6204 17.9193L86.5897 18.293L87.088 18.334ZM87.088 28.252V28.752H87.1019L87.1157 28.7512L87.088 28.252ZM88.912 26.656L88.5085 26.3607L88.5085 26.3607L88.912 26.656ZM91.154 22.628L90.6988 22.4211L90.6974 22.4243L91.154 22.628ZM91.2335 23.5932C90.2393 25.7075 89.3341 27.2629 88.5211 28.2822C87.685 29.3304 87.0431 29.69 86.594 29.69V30.69C87.5382 30.69 88.4416 29.9856 89.3029 28.9058C90.1872 27.7971 91.1313 26.1605 92.1385 24.0188L91.2335 23.5932ZM86.594 29.69C85.9248 29.69 85.4178 29.6493 85.0595 29.5765C84.8809 29.5402 84.7534 29.4987 84.667 29.4586C84.5788 29.4176 84.5566 29.3889 84.5583 29.3911L83.7657 30.0009C84.0102 30.3188 84.4369 30.4705 84.8605 30.5565C85.3128 30.6484 85.8952 30.69 86.594 30.69V29.69ZM84.5731 29.4114C84.5741 29.4129 84.5643 29.3985 84.5486 29.3576C84.5334 29.318 84.5162 29.263 84.4984 29.1893C84.4627 29.0412 84.43 28.8401 84.4028 28.58C84.3484 28.0603 84.32 27.3453 84.32 26.428H83.32C83.32 27.36 83.3486 28.1144 83.4082 28.684C83.438 28.9686 83.4765 29.2171 83.5263 29.4237C83.5736 29.62 83.6409 29.8217 83.7509 29.9806L84.5731 29.4114ZM84.32 26.428C84.32 24.6044 84.4952 21.9517 84.8494 18.4605L83.8545 18.3595C83.4994 21.8603 83.32 24.553 83.32 26.428H84.32ZM84.45 17.9197C83.8564 17.801 83.4555 17.6292 83.2044 17.435C82.9686 17.2526 82.8593 17.0481 82.8357 16.8038L81.8403 16.9002C81.8927 17.4413 82.157 17.8891 82.5925 18.226C83.0128 18.5511 83.5809 18.7657 84.2539 18.9003L84.45 17.9197ZM82.838 16.852C82.838 16.8047 82.8457 16.7868 82.8459 16.7864C82.846 16.7862 82.8451 16.7882 82.843 16.7908C82.8409 16.7935 82.8395 16.7944 82.8405 16.7937C82.8484 16.7877 82.9193 16.744 83.136 16.744V15.744C82.8207 15.744 82.4926 15.8016 82.2345 15.9983C81.9506 16.2145 81.838 16.5303 81.838 16.852H82.838ZM83.136 16.744C83.6038 16.744 83.9936 16.8328 84.3184 16.9952L84.7656 16.1008C84.2797 15.8579 83.7322 15.744 83.136 15.744V16.744ZM85.0381 16.61C85.2653 14.7922 85.5305 12.9489 85.8335 11.08L84.8464 10.92C84.5415 12.8004 84.2746 14.6558 84.0458 16.486L85.0381 16.61ZM85.8339 11.078C85.8911 10.7154 86.0747 10.348 86.4261 9.97468L85.6979 9.28932C85.2386 9.77732 84.9409 10.3219 84.8461 10.922L85.8339 11.078ZM86.4261 9.97468C86.7886 9.58952 87.0585 9.486 87.24 9.486V8.486C86.6615 8.486 86.146 8.81314 85.6979 9.28932L86.4261 9.97468ZM87.24 9.486C87.058 9.486 87.0676 9.31774 87.1339 9.52662C87.1924 9.71124 87.234 10.0384 87.234 10.544H88.234C88.234 10.011 88.1932 9.55909 88.0871 9.22438C87.9887 8.91392 87.7513 8.486 87.24 8.486V9.486ZM87.234 10.544C87.234 10.9962 87.0602 13.1797 86.704 17.1493L87.7 17.2387C88.0531 13.3043 88.234 11.0545 88.234 10.544H87.234ZM87.293 17.6856C88.0289 17.5494 88.8174 17.2799 89.6562 16.8867L89.2318 15.9813C88.4493 16.3481 87.7431 16.5853 87.1109 16.7024L87.293 17.6856ZM89.6509 16.8892C90.0654 16.7008 90.3875 16.563 90.621 16.4732C90.7381 16.4281 90.8263 16.3977 90.8889 16.3793C90.9656 16.3568 90.9654 16.364 90.926 16.364V15.364C90.8105 15.364 90.6916 15.395 90.6068 15.4199C90.5079 15.449 90.3919 15.4899 90.262 15.5398C90.0014 15.64 89.6586 15.7872 89.2371 15.9788L89.6509 16.8892ZM90.926 16.364C91.016 16.364 91.081 16.371 91.1254 16.3801C91.1705 16.3892 91.1834 16.3983 91.1783 16.3951C91.1698 16.39 91.1467 16.3723 91.1283 16.3386C91.1104 16.3057 91.11 16.2817 91.11 16.282H92.11C92.11 15.9776 91.9699 15.707 91.6997 15.5419C91.4696 15.4012 91.1886 15.364 90.926 15.364V16.364ZM91.1125 16.3317C91.1018 16.2256 91.1492 16.1734 91.1324 16.1964C91.1172 16.2172 91.0732 16.2655 90.9758 16.3393C90.7824 16.4857 90.4609 16.671 89.9899 16.8941L90.418 17.7979C90.9097 17.565 91.3039 17.345 91.5792 17.1367C91.7161 17.0331 91.8447 16.9168 91.9404 16.7856C92.0344 16.6566 92.1308 16.4651 92.1075 16.2322L91.1125 16.3317ZM89.9998 16.8896C89.073 17.3042 88.0695 17.6229 86.9878 17.8441L87.1882 18.8239C88.3358 18.5891 89.4097 18.2491 90.4082 17.8024L89.9998 16.8896ZM86.5897 18.293C86.2854 21.9951 86.132 24.8109 86.132 26.732H87.132C87.132 24.8531 87.2826 22.0702 87.5863 18.375L86.5897 18.293ZM86.132 26.732C86.132 27.2514 86.1696 27.6907 86.2671 28.0157C86.3157 28.1779 86.3907 28.3513 86.5168 28.4915C86.6559 28.646 86.8522 28.752 87.088 28.752V27.752C87.1718 27.752 87.2351 27.7947 87.2601 27.8225C87.2723 27.836 87.2522 27.8194 87.2249 27.7283C87.1704 27.5467 87.132 27.2259 87.132 26.732H86.132ZM87.1157 28.7512C87.5129 28.7292 87.8848 28.4994 88.2152 28.2103C88.5582 27.9102 88.925 27.485 89.3155 26.9513L88.5085 26.3607C88.139 26.8657 87.8218 27.2258 87.5567 27.4577C87.2792 27.7006 87.1191 27.7495 87.0602 27.7528L87.1157 28.7512ZM89.3155 26.9513C90.1028 25.8752 90.8668 24.4989 91.6106 22.8317L90.6974 22.4243C89.9719 24.0504 89.2411 25.3594 88.5085 26.3607L89.3155 26.9513ZM91.6092 22.8349C91.9878 22.0018 92.2858 21.3881 92.5049 20.9864C92.6156 20.7834 92.6985 20.649 92.7553 20.5708C92.7849 20.5302 92.7956 20.5214 92.7886 20.5278C92.7848 20.5312 92.7653 20.549 92.7309 20.5679C92.6985 20.5857 92.6251 20.62 92.522 20.62V19.62C92.2998 19.62 92.1525 19.7543 92.1129 19.7906C92.0489 19.8493 91.9931 19.9188 91.9466 19.9827C91.8515 20.1135 91.7443 20.2926 91.627 20.5076C91.3901 20.9419 91.0801 21.5822 90.6988 22.4211L91.6092 22.8349ZM92.522 20.62C92.5149 20.62 92.4236 20.6149 92.3452 20.5253C92.2779 20.4484 92.288 20.3846 92.288 20.424H93.288C93.288 20.2608 93.2537 20.045 93.0978 19.8667C92.9307 19.6758 92.7064 19.62 92.522 19.62V20.62ZM92.288 20.424C92.288 21.0086 91.9701 22.0438 91.2344 23.5913L92.1375 24.0207C92.8712 22.4775 93.288 21.258 93.288 20.424H92.288ZM100.395 29.582L100.041 29.9356L100.061 29.9551L100.082 29.9724L100.395 29.582ZM100.205 25.326L100.704 25.3468L99.7403 25.1403L100.205 25.326ZM98.2285 29.012L97.8405 28.6967L97.8393 28.6981L98.2285 29.012ZM93.0985 28.784L92.706 29.0938L92.7101 29.0989L93.0985 28.784ZM93.6685 18.866L93.2669 18.5681L93.2639 18.5723L93.6685 18.866ZM100.965 18.106L100.602 18.4508L101.016 18.8852L101.369 18.4001L100.965 18.106ZM102.029 17.118L102.329 17.518L102.332 17.5157L102.029 17.118ZM103.701 19.436L103.211 19.3347L103.209 19.3428L103.208 19.351L103.701 19.436ZM103.245 21.032L102.804 20.7949L102.79 20.8216L102.779 20.8498L103.245 21.032ZM103.131 28.252V28.752H103.145L103.16 28.7511L103.131 28.252ZM104.917 26.656L105.32 26.9513L105.323 26.9466L104.917 26.656ZM107.159 22.59L106.705 22.3805L106.702 22.3863L107.159 22.59ZM107.691 23.806L107.239 23.5913L107.238 23.5932L107.691 23.806ZM95.7205 19.626L95.3228 19.323L95.3217 19.3244L95.7205 19.626ZM95.1505 26.808L94.6935 27.0111L94.6984 27.0215L95.1505 26.808ZM100.509 21.906L100.975 22.0868L100.997 22.0293L101.005 21.968L100.509 21.906ZM100.585 20.88L100.087 20.8302L100.086 20.842L100.085 20.8537L100.585 20.88ZM100.699 19.74L101.196 19.7898L101.212 19.6326L101.134 19.4949L100.699 19.74ZM99.4825 18.6L99.2009 19.0131L99.2115 19.0204L99.2225 19.0271L99.4825 18.6ZM102.637 29.69C101.706 29.69 101.089 29.4973 100.707 29.1916L100.082 29.9724C100.713 30.4774 101.591 30.69 102.637 30.69V29.69ZM100.748 29.2284C100.766 29.2461 100.724 29.2108 100.685 29.0184C100.65 28.8419 100.629 28.5901 100.629 28.252H99.6285C99.6285 28.6233 99.6514 28.9478 99.7047 29.2146C99.7549 29.4656 99.846 29.7406 100.041 29.9356L100.748 29.2284ZM100.629 28.252C100.629 27.5273 100.654 26.5597 100.704 25.3468L99.705 25.3052C99.6542 26.5243 99.6285 27.5074 99.6285 28.252H100.629ZM99.7403 25.1403C99.0892 26.768 98.4528 27.9431 97.8405 28.6967L98.6166 29.3273C99.3216 28.4596 100.002 27.1774 100.669 25.5117L99.7403 25.1403ZM97.8393 28.6981C97.3014 29.3652 96.6214 29.69 95.7585 29.69V30.69C96.9223 30.69 97.889 30.2295 98.6177 29.3259L97.8393 28.6981ZM95.7585 29.69C94.9252 29.69 94.1721 29.3142 93.4869 28.4691L92.7101 29.0989C93.5449 30.1285 94.5651 30.69 95.7585 30.69V29.69ZM93.491 28.4742C92.8333 27.6411 92.4585 26.2816 92.4585 24.3H91.4585C91.4585 26.3717 91.8438 28.0016 92.7061 29.0938L93.491 28.4742ZM92.4585 24.3C92.4585 22.3471 92.9988 20.6399 94.0732 19.1597L93.2639 18.5723C92.0582 20.2334 91.4585 22.1489 91.4585 24.3H92.4585ZM94.0701 19.1639C95.1459 17.7139 96.52 17.01 98.2285 17.01V16.01C96.1877 16.01 94.5218 16.8767 93.267 18.5681L94.0701 19.1639ZM98.2285 17.01C98.8261 17.01 99.6132 17.4121 100.602 18.4508L101.327 17.7612C100.289 16.6719 99.2523 16.01 98.2285 16.01V17.01ZM101.369 18.4001C101.527 18.1823 101.834 17.8887 102.329 17.518L101.729 16.718C101.209 17.1073 100.807 17.4723 100.56 17.8119L101.369 18.4001ZM102.332 17.5157C102.843 17.1261 103.175 17.01 103.359 17.01V16.01C102.833 16.01 102.278 16.2993 101.725 16.7203L102.332 17.5157ZM103.359 17.01C103.338 17.01 103.306 16.9998 103.285 16.9823C103.274 16.9724 103.293 16.9829 103.321 17.0546C103.381 17.2062 103.429 17.4909 103.429 17.954H104.429C104.429 17.4544 104.381 17.0172 104.251 16.6874C104.184 16.5184 104.085 16.3484 103.93 16.2182C103.767 16.0803 103.569 16.01 103.359 16.01V17.01ZM103.429 17.954C103.429 18.1478 103.365 18.5919 103.211 19.3347L104.19 19.5373C104.34 18.8107 104.429 18.2669 104.429 17.954H103.429ZM103.208 19.351C103.083 20.0744 102.942 20.5399 102.804 20.7949L103.685 21.269C103.902 20.8654 104.065 20.2669 104.193 19.521L103.208 19.351ZM102.779 20.8498C102.698 21.0562 102.642 21.3463 102.599 21.6828C102.554 22.0305 102.518 22.4674 102.489 22.9899C102.431 24.0356 102.403 25.449 102.403 27.226H103.403C103.403 25.4564 103.431 24.064 103.487 23.0451C103.515 22.5353 103.55 22.1251 103.591 21.8109C103.633 21.4856 103.677 21.2991 103.71 21.2142L102.779 20.8498ZM102.403 27.226C102.403 27.5769 102.421 27.8779 102.471 28.104C102.496 28.2134 102.536 28.3473 102.615 28.4652C102.7 28.5931 102.869 28.752 103.131 28.752V27.752C103.316 27.752 103.419 27.8682 103.447 27.9105C103.468 27.943 103.461 27.9486 103.448 27.887C103.422 27.7711 103.403 27.5591 103.403 27.226H102.403ZM103.16 28.7511C103.55 28.7282 103.914 28.4921 104.233 28.2068C104.568 27.9078 104.93 27.4839 105.32 26.9513L104.513 26.3607C104.143 26.8667 103.828 27.2282 103.567 27.4612C103.291 27.7079 103.142 27.7505 103.101 27.7529L103.16 28.7511ZM105.323 26.9466C106.109 25.8473 106.872 24.4604 107.615 22.7937L106.702 22.3863C105.976 24.013 105.244 25.3367 104.51 26.3654L105.323 26.9466ZM107.612 22.7995C107.991 21.9791 108.289 21.375 108.508 20.9797C108.619 20.78 108.701 20.648 108.758 20.5714C108.787 20.5316 108.798 20.5232 108.79 20.5297C108.786 20.5333 108.767 20.5507 108.733 20.5693C108.7 20.5868 108.628 20.62 108.527 20.62V19.62C108.307 19.62 108.161 19.7509 108.12 19.7875C108.056 19.8454 108 19.9142 107.953 19.9774C107.858 20.1066 107.75 20.2833 107.633 20.4952C107.396 20.9233 107.086 21.5542 106.705 22.3805L107.612 22.7995ZM108.527 20.62C108.519 20.62 108.428 20.6149 108.35 20.5253C108.282 20.4484 108.293 20.3846 108.293 20.424H109.293C109.293 20.2608 109.258 20.045 109.102 19.8667C108.935 19.6758 108.711 19.62 108.527 19.62V20.62ZM108.293 20.424C108.293 21.0086 107.975 22.0438 107.239 23.5913L108.142 24.0207C108.876 22.4775 109.293 21.258 109.293 20.424H108.293ZM107.238 23.5932C106.244 25.7078 105.341 27.2639 104.534 28.2836C103.702 29.3343 103.07 29.69 102.637 29.69V30.69C103.571 30.69 104.465 29.9817 105.318 28.9044C106.195 27.7961 107.136 26.1602 108.143 24.0188L107.238 23.5932ZM98.0005 17.53C97.0404 17.53 96.1499 18.2374 95.3228 19.323L96.1182 19.929C96.9124 18.8866 97.542 18.53 98.0005 18.53V17.53ZM95.3217 19.3244C94.4647 20.4578 94.0425 21.7948 94.0425 23.312H95.0425C95.0425 21.9919 95.4056 20.8715 96.1193 19.9276L95.3217 19.3244ZM94.0425 23.312C94.0425 24.7733 94.2505 26.0142 94.6936 27.0111L95.6074 26.6049C95.2398 25.7778 95.0425 24.6881 95.0425 23.312H94.0425ZM94.6984 27.0215C95.1671 28.0141 95.859 28.676 96.8225 28.676V27.676C96.4181 27.676 95.9952 27.4259 95.6026 26.5945L94.6984 27.0215ZM96.8225 28.676C97.2363 28.676 97.5926 28.4253 97.8788 28.1355C98.1787 27.832 98.4856 27.4002 98.8021 26.8619C99.437 25.7819 100.161 24.1846 100.975 22.0868L100.042 21.7252C99.2347 23.8074 98.5337 25.3451 97.94 26.3551C97.6421 26.8618 97.3838 27.2137 97.1674 27.4327C96.9375 27.6655 96.8268 27.676 96.8225 27.676V28.676ZM101.005 21.968C101.032 21.7458 101.058 21.3879 101.084 20.9063L100.085 20.8537C100.06 21.3347 100.035 21.6609 100.012 21.844L101.005 21.968ZM101.082 20.9298C101.133 20.4231 101.171 20.0431 101.196 19.7898L100.201 19.6902C100.176 19.9436 100.138 20.3236 100.087 20.8302L101.082 20.9298ZM101.134 19.4949C100.849 18.9879 100.367 18.5528 99.7425 18.1729L99.2225 19.0271C99.7638 19.3566 100.092 19.6814 100.263 19.9851L101.134 19.4949ZM99.7642 18.1869C99.1673 17.7799 98.5738 17.53 98.0005 17.53V18.53C98.2885 18.53 98.6831 18.6601 99.2009 19.0131L99.7642 18.1869ZM116.347 24.186L116.847 24.2121L115.88 24.0092L116.347 24.186ZM114.143 28.746L113.736 28.4564L113.731 28.4637L114.143 28.746ZM108.747 28.784L108.354 29.0925L108.359 29.0989L108.747 28.784ZM109.355 18.866L108.954 18.5681L108.951 18.5723L109.355 18.866ZM115.283 17.004L115.02 17.4291L115.028 17.4338L115.035 17.4381L115.283 17.004ZM116.689 18.144L116.316 18.4762L116.911 19.1458L117.168 18.2877L116.689 18.144ZM117.791 16.966L118.106 17.3551L118.114 17.3477L117.791 16.966ZM119.197 20.652L118.758 20.4126L118.716 20.4905L118.703 20.5782L119.197 20.652ZM118.779 25.364L118.279 25.3552L118.253 26.8358L119.172 25.674L118.779 25.364ZM122.731 20.386L122.378 20.0324L122.364 20.046L122.352 20.0606L122.731 20.386ZM123.415 20.994L123.829 21.2754L123.84 21.2591L123.85 21.2421L123.415 20.994ZM118.627 27.264L118.236 26.9525L118.136 27.0782L118.128 27.2388L118.627 27.264ZM118.323 33.42L117.824 33.3968L117.824 33.4003L118.323 33.42ZM116.955 40.184L116.528 39.9242L116.522 39.9341L116.955 40.184ZM110.419 41.362L110.706 40.9524L110.703 40.9504L110.419 41.362ZM110.761 34.75L110.359 34.4536L110.355 34.4587L110.761 34.75ZM116.119 28.556L116.486 28.896L116.609 28.7631L116.619 28.5821L116.119 28.556ZM111.407 19.55L111.003 19.2559L111.002 19.2576L111.407 19.55ZM110.837 26.846L110.38 27.0491L110.384 27.0568L110.388 27.0645L110.837 26.846ZM114.257 26.618L114.693 26.8626L114.693 26.8626L114.257 26.618ZM116.499 21.26L116.97 21.4294L116.994 21.3614L116.999 21.2894L116.499 21.26ZM116.575 19.626H117.075V19.501L117.017 19.3907L116.575 19.626ZM115.321 18.486L115.052 18.9071L115.058 18.911L115.064 18.9147L115.321 18.486ZM116.005 30.342L116.505 30.3675L116.575 28.992L115.639 30.0021L116.005 30.342ZM112.129 39.956L111.69 40.1954L111.69 40.1954L112.129 39.956ZM115.815 34.066L116.315 34.094L116.315 34.0915L115.815 34.066ZM115.88 24.0092C115.099 26.075 114.382 27.5469 113.736 28.4564L114.551 29.0356C115.273 28.0198 116.025 26.4516 116.815 24.3628L115.88 24.0092ZM113.731 28.4637C113.157 29.3015 112.432 29.69 111.521 29.69V30.69C112.789 30.69 113.812 30.1158 114.556 29.0283L113.731 28.4637ZM111.521 29.69C110.6 29.69 109.812 29.3037 109.136 28.4691L108.359 29.0989C109.202 30.139 110.264 30.69 111.521 30.69V29.69ZM109.141 28.4756C108.51 27.6702 108.145 26.3131 108.145 24.3H107.145C107.145 26.3909 107.516 28.0231 108.354 29.0924L109.141 28.4756ZM108.145 24.3C108.145 22.3471 108.686 20.6399 109.76 19.1597L108.951 18.5723C107.745 20.2334 107.145 22.1489 107.145 24.3H108.145ZM109.757 19.1639C110.833 17.7139 112.207 17.01 113.915 17.01V16.01C111.875 16.01 110.209 16.8767 108.954 18.5681L109.757 19.1639ZM113.915 17.01C114.16 17.01 114.521 17.1204 115.02 17.4291L115.547 16.5789C114.981 16.229 114.431 16.01 113.915 16.01V17.01ZM115.035 17.4381C115.52 17.7153 115.947 18.0609 116.316 18.4762L117.063 17.8118C116.622 17.3151 116.11 16.9007 115.531 16.5699L115.035 17.4381ZM117.168 18.2877C117.167 18.2916 117.174 18.2673 117.213 18.2108C117.25 18.1568 117.307 18.0871 117.387 18.0011C117.549 17.8285 117.785 17.6136 118.106 17.355L117.477 16.577C117.139 16.8504 116.863 17.0979 116.657 17.3179C116.464 17.524 116.284 17.7565 116.21 18.0003L117.168 18.2877ZM118.114 17.3477C118.429 17.0811 118.693 16.8947 118.906 16.7771C119.127 16.6556 119.256 16.63 119.311 16.63V15.63C119.013 15.63 118.71 15.7438 118.424 15.9009C118.132 16.062 117.812 16.2935 117.468 16.5843L118.114 17.3477ZM119.311 16.63C119.183 16.63 119.199 16.5086 119.267 16.7032C119.334 16.8945 119.381 17.2348 119.381 17.764H120.381C120.381 17.2039 120.334 16.7272 120.211 16.3738C120.089 16.0237 119.82 15.63 119.311 15.63V16.63ZM119.381 17.764C119.381 18.7818 119.169 19.66 118.758 20.4126L119.636 20.8914C120.138 19.972 120.381 18.9248 120.381 17.764H119.381ZM118.703 20.5782C118.447 22.2932 118.305 23.8859 118.279 25.3552L119.279 25.3728C119.304 23.9541 119.441 22.4055 119.692 20.7258L118.703 20.5782ZM119.172 25.674C121.661 22.5245 122.968 20.8787 123.111 20.7114L122.352 20.0606C122.191 20.248 120.863 21.9208 118.387 25.054L119.172 25.674ZM123.085 20.7396C123.155 20.6695 123.203 20.6341 123.23 20.6184C123.258 20.6021 123.241 20.62 123.187 20.62V19.62C122.847 19.62 122.569 19.8415 122.378 20.0324L123.085 20.7396ZM123.187 20.62C123.237 20.62 123.182 20.6321 123.119 20.5686C123.055 20.505 123.067 20.4504 123.067 20.5H124.067C124.067 20.2963 124.016 20.0516 123.826 19.8614C123.636 19.6713 123.391 19.62 123.187 19.62V20.62ZM123.067 20.5C123.067 20.5401 123.054 20.6191 122.981 20.7459L123.85 21.2421C123.98 21.0142 124.067 20.7639 124.067 20.5H123.067ZM123.002 20.7126C122.203 21.8857 120.619 23.962 118.236 26.9525L119.018 27.5755C121.399 24.5873 123.006 22.4836 123.829 21.2754L123.002 20.7126ZM118.128 27.2388C117.976 30.2534 117.875 32.3063 117.824 33.3968L118.823 33.4432C118.873 32.355 118.975 30.3039 119.127 27.2892L118.128 27.2388ZM117.824 33.4003C117.697 36.6084 117.242 38.7498 116.528 39.9243L117.383 40.4437C118.239 39.0342 118.696 36.6663 118.823 33.4397L117.824 33.4003ZM116.522 39.9341C115.879 41.05 114.71 41.66 112.851 41.66V42.66C114.945 42.66 116.512 41.9527 117.388 40.4339L116.522 39.9341ZM112.851 41.66C112.101 41.66 111.389 41.4303 110.706 40.9524L110.133 41.7716C110.97 42.3577 111.879 42.66 112.851 42.66V41.66ZM110.703 40.9504C110.158 40.5742 109.817 39.8702 109.817 38.664H108.817C108.817 40.0418 109.212 41.1365 110.136 41.7736L110.703 40.9504ZM109.817 38.664C109.817 37.5296 110.248 36.3248 111.168 35.0413L110.355 34.4587C109.35 35.8605 108.817 37.2651 108.817 38.664H109.817ZM111.164 35.0463C112.134 33.7285 113.903 31.6817 116.486 28.896L115.753 28.216C113.168 31.0036 111.365 33.0862 110.359 34.4537L111.164 35.0463ZM116.619 28.5821L116.847 24.2121L115.848 24.1599L115.62 28.5299L116.619 28.5821ZM113.687 17.378C112.717 17.378 111.826 18.1248 111.003 19.2559L111.812 19.8441C112.61 18.7458 113.239 18.378 113.687 18.378V17.378ZM111.002 19.2576C110.15 20.4386 109.729 21.8094 109.729 23.35H110.729C110.729 22.0026 111.094 20.8401 111.813 19.8424L111.002 19.2576ZM109.729 23.35C109.729 24.8113 109.937 26.0522 110.38 27.0491L111.294 26.6429C110.927 25.8158 110.729 24.7261 110.729 23.35H109.729ZM110.388 27.0645C110.851 28.0175 111.514 28.676 112.433 28.676V27.676C112.086 27.676 111.686 27.4479 111.287 26.6275L110.388 27.0645ZM112.433 28.676C113.363 28.676 114.099 27.9223 114.693 26.8626L113.821 26.3734C113.25 27.391 112.77 27.676 112.433 27.676V28.676ZM114.693 26.8626C115.298 25.7848 116.057 23.9646 116.97 21.4294L116.029 21.0906C115.118 23.6221 114.382 25.3739 113.821 26.3734L114.693 26.8626ZM116.999 21.2894C117.049 20.4329 117.075 19.8719 117.075 19.626H116.075C116.075 19.8361 116.051 20.3644 116 21.2306L116.999 21.2894ZM117.017 19.3907C116.751 18.8922 116.241 18.4546 115.579 18.0573L115.064 18.9147C115.669 19.2774 115.995 19.5998 116.134 19.8613L117.017 19.3907ZM115.591 18.0649C114.924 17.6381 114.283 17.378 113.687 17.378V18.378C114.004 18.378 114.452 18.5233 115.052 18.9071L115.591 18.0649ZM115.639 30.0021C114.18 31.5758 113.071 33.009 112.324 34.3001C111.579 35.5863 111.173 36.7677 111.173 37.828H112.173C112.173 37.0137 112.489 36.01 113.189 34.8009C113.886 33.5967 114.943 32.2242 116.372 30.6819L115.639 30.0021ZM111.173 37.828C111.173 38.7444 111.335 39.5431 111.69 40.1954L112.568 39.7166C112.316 39.2542 112.173 38.6342 112.173 37.828H111.173ZM111.69 40.1954C112.062 40.8763 112.63 41.292 113.383 41.292V40.292C113.073 40.292 112.805 40.1504 112.568 39.7166L111.69 40.1954ZM113.383 41.292C113.886 41.292 114.342 41.1524 114.726 40.8542C115.104 40.5603 115.375 40.1401 115.562 39.6361L114.625 39.2879C114.483 39.6705 114.304 39.9154 114.112 40.0648C113.925 40.2099 113.692 40.292 113.383 40.292V41.292ZM115.562 39.6361C115.922 38.6676 116.163 36.7938 116.315 34.094L115.316 34.038C115.164 36.7595 114.924 38.483 114.625 39.2879L115.562 39.6361ZM116.315 34.0915L116.505 30.3675L115.506 30.3165L115.316 34.0405L116.315 34.0915ZM126.23 20.082V20.582H126.257L126.284 20.5791L126.23 20.082ZM128.32 19.854V19.354H128.293L128.266 19.3569L128.32 19.854ZM128.814 23.502L128.318 23.4421L128.317 23.4506L128.814 23.502ZM128.814 28.252V28.752H128.829L128.843 28.7511L128.814 28.252ZM130.6 26.656L131.004 26.9513L131.007 26.9466L130.6 26.656ZM132.842 22.59L132.388 22.3805L132.385 22.3863L132.842 22.59ZM133.374 23.806L132.922 23.5913L132.922 23.5932L133.374 23.806ZM126.078 29.582L125.725 29.9356L125.744 29.9551L125.766 29.9724L126.078 29.582ZM126.458 21.07L126.937 21.2129L127.129 20.57H126.458V21.07ZM123.38 19.664L123.805 19.4L123.803 19.397L123.38 19.664ZM125.66 16.51L125.26 16.81L125.269 16.8213L125.278 16.8321L125.66 16.51ZM125.736 19.968L125.304 19.7161L125.08 20.1008L125.436 20.368L125.736 19.968ZM126.284 20.5791L128.374 20.3511L128.266 19.3569L126.176 19.5849L126.284 20.5791ZM128.32 20.354C128.322 20.354 128.323 20.3527 128.335 20.3601C128.351 20.3705 128.387 20.4002 128.436 20.4733L129.268 19.9186C129.059 19.6055 128.746 19.354 128.32 19.354V20.354ZM128.436 20.4733C128.538 20.6262 128.58 20.7715 128.58 20.918H129.58C129.58 20.5578 129.47 20.2218 129.268 19.9186L128.436 20.4733ZM128.58 20.918C128.58 21.133 128.497 21.9545 128.318 23.4421L129.31 23.5619C129.486 22.1109 129.58 21.2097 129.58 20.918H128.58ZM128.317 23.4506C128.164 24.9268 128.086 26.1116 128.086 26.998H129.086C129.086 26.1617 129.16 25.0159 129.311 23.5534L128.317 23.4506ZM128.086 26.998C128.086 27.4231 128.105 27.7732 128.151 28.0279C128.173 28.1506 128.209 28.2909 128.275 28.4131C128.338 28.5278 128.503 28.752 128.814 28.752V27.752C129.049 27.752 129.148 27.9239 129.153 27.9342C129.163 27.9519 129.151 27.9354 129.135 27.8491C129.105 27.6858 129.086 27.4089 129.086 26.998H128.086ZM128.843 28.7511C129.233 28.7282 129.597 28.4921 129.917 28.2068C130.251 27.9078 130.614 27.4839 131.004 26.9513L130.197 26.3607C129.826 26.8667 129.511 27.2282 129.25 27.4612C128.974 27.7079 128.825 27.7505 128.785 27.7529L128.843 28.7511ZM131.007 26.9466C131.792 25.8473 132.555 24.4604 133.299 22.7937L132.385 22.3863C131.66 24.013 130.928 25.3367 130.193 26.3654L131.007 26.9466ZM133.296 22.7995C133.675 21.9791 133.973 21.375 134.191 20.9797C134.302 20.78 134.385 20.648 134.441 20.5714C134.471 20.5316 134.481 20.5232 134.474 20.5297C134.47 20.5333 134.45 20.5507 134.416 20.5693C134.384 20.5868 134.311 20.62 134.21 20.62V19.62C133.991 19.62 133.844 19.7509 133.804 19.7875C133.74 19.8454 133.683 19.9142 133.637 19.9774C133.541 20.1066 133.434 20.2833 133.317 20.4952C133.08 20.9233 132.769 21.5542 132.388 22.3805L133.296 22.7995ZM134.21 20.62C134.203 20.62 134.112 20.6149 134.033 20.5253C133.966 20.4484 133.976 20.3846 133.976 20.424H134.976C134.976 20.2608 134.942 20.045 134.786 19.8667C134.619 19.6758 134.394 19.62 134.21 19.62V20.62ZM133.976 20.424C133.976 21.0086 133.658 22.0438 132.922 23.5913L133.826 24.0207C134.559 22.4775 134.976 21.258 134.976 20.424H133.976ZM132.922 23.5932C131.927 25.7078 131.025 27.2639 130.218 28.2836C129.386 29.3343 128.754 29.69 128.32 29.69V30.69C129.254 30.69 130.149 29.9817 131.002 28.9044C131.879 27.7961 132.82 26.1602 133.827 24.0188L132.922 23.5932ZM128.32 29.69C127.389 29.69 126.773 29.4973 126.39 29.1916L125.766 29.9724C126.397 30.4774 127.275 30.69 128.32 30.69V29.69ZM126.432 29.2284C126.484 29.2804 126.493 29.3215 126.483 29.2946C126.476 29.277 126.465 29.2393 126.451 29.1738C126.424 29.0434 126.398 28.8492 126.377 28.5824C126.334 28.0514 126.312 27.285 126.312 26.276H125.312C125.312 27.2937 125.334 28.0916 125.38 28.6626C125.403 28.9468 125.433 29.188 125.472 29.3774C125.492 29.4719 125.516 29.5652 125.548 29.6497C125.577 29.7249 125.628 29.8393 125.725 29.9356L126.432 29.2284ZM126.312 26.276C126.312 24.2822 126.524 22.5977 126.937 21.2129L125.979 20.9271C125.531 22.4303 125.312 24.2165 125.312 26.276H126.312ZM126.458 20.57C125.097 20.57 124.267 20.1432 123.805 19.4L122.955 19.928C123.659 21.0595 124.88 21.57 126.458 21.57V20.57ZM123.803 19.397C123.553 19.0011 123.424 18.5502 123.424 18.03H122.424C122.424 18.7258 122.599 19.3643 122.957 19.931L123.803 19.397ZM123.424 18.03C123.424 17.4928 123.535 17.0471 123.741 16.6768L122.867 16.1912C122.566 16.7329 122.424 17.3512 122.424 18.03H123.424ZM123.741 16.6768C123.922 16.352 124.123 16.25 124.368 16.25V15.25C123.701 15.25 123.193 15.604 122.867 16.1912L123.741 16.6768ZM124.368 16.25C124.645 16.25 124.942 16.3859 125.26 16.81L126.06 16.21C125.618 15.6208 125.054 15.25 124.368 15.25V16.25ZM125.278 16.8321C125.61 17.2267 125.768 17.6583 125.768 18.144H126.768C126.768 17.4137 126.521 16.756 126.043 16.1879L125.278 16.8321ZM125.768 18.144C125.768 18.6503 125.621 19.1723 125.304 19.7161L126.168 20.2199C126.56 19.5477 126.768 18.8537 126.768 18.144H125.768ZM125.436 20.368C125.67 20.5432 125.97 20.582 126.23 20.582V19.582C126.142 19.582 126.083 19.5744 126.048 19.5663C126.012 19.558 126.016 19.5527 126.036 19.568L125.436 20.368ZM142.186 29.582L141.832 29.9356L141.852 29.9551L141.873 29.9724L142.186 29.582ZM141.996 25.326L142.495 25.3468L141.531 25.1403L141.996 25.326ZM140.02 29.012L139.632 28.6967L139.63 28.6981L140.02 29.012ZM134.89 28.784L134.497 29.0938L134.501 29.0989L134.89 28.784ZM135.46 18.866L135.058 18.5681L135.055 18.5723L135.46 18.866ZM142.756 18.106L142.394 18.4508L142.807 18.8852L143.16 18.4001L142.756 18.106ZM143.82 17.118L144.12 17.518L144.123 17.5157L143.82 17.118ZM145.492 19.436L145.002 19.3347L145 19.3428L144.999 19.351L145.492 19.436ZM145.036 21.032L144.595 20.7949L144.581 20.8216L144.57 20.8498L145.036 21.032ZM144.922 28.252V28.752H144.936L144.951 28.7511L144.922 28.252ZM146.708 26.656L147.111 26.9513L147.114 26.9466L146.708 26.656ZM148.95 22.59L148.496 22.3805L148.493 22.3863L148.95 22.59ZM149.482 23.806L149.03 23.5913L149.029 23.5932L149.482 23.806ZM137.512 19.626L137.114 19.323L137.113 19.3244L137.512 19.626ZM136.942 26.808L136.485 27.0111L136.489 27.0215L136.942 26.808ZM142.3 21.906L142.766 22.0868L142.788 22.0293L142.796 21.968L142.3 21.906ZM142.376 20.88L141.878 20.8302L141.877 20.842L141.876 20.8537L142.376 20.88ZM142.49 19.74L142.987 19.7898L143.003 19.6326L142.925 19.4949L142.49 19.74ZM141.274 18.6L140.992 19.0131L141.003 19.0204L141.014 19.0271L141.274 18.6ZM144.428 29.69C143.497 29.69 142.88 29.4973 142.498 29.1916L141.873 29.9724C142.504 30.4774 143.383 30.69 144.428 30.69V29.69ZM142.539 29.2284C142.557 29.2461 142.515 29.2108 142.476 29.0184C142.441 28.8419 142.42 28.5901 142.42 28.252H141.42C141.42 28.6233 141.442 28.9478 141.496 29.2146C141.546 29.4656 141.637 29.7406 141.832 29.9356L142.539 29.2284ZM142.42 28.252C142.42 27.5273 142.445 26.5597 142.495 25.3468L141.496 25.3052C141.445 26.5243 141.42 27.5074 141.42 28.252H142.42ZM141.531 25.1403C140.88 26.768 140.244 27.9431 139.632 28.6967L140.408 29.3273C141.113 28.4596 141.794 27.1774 142.46 25.5117L141.531 25.1403ZM139.63 28.6981C139.092 29.3652 138.413 29.69 137.55 29.69V30.69C138.713 30.69 139.68 30.2295 140.409 29.3259L139.63 28.6981ZM137.55 29.69C136.716 29.69 135.963 29.3142 135.278 28.4691L134.501 29.0989C135.336 30.1285 136.356 30.69 137.55 30.69V29.69ZM135.282 28.4742C134.624 27.6411 134.25 26.2816 134.25 24.3H133.25C133.25 26.3717 133.635 28.0016 134.497 29.0938L135.282 28.4742ZM134.25 24.3C134.25 22.3471 134.79 20.6399 135.864 19.1597L135.055 18.5723C133.849 20.2334 133.25 22.1489 133.25 24.3H134.25ZM135.861 19.1639C136.937 17.7139 138.311 17.01 140.02 17.01V16.01C137.979 16.01 136.313 16.8767 135.058 18.5681L135.861 19.1639ZM140.02 17.01C140.617 17.01 141.404 17.4121 142.394 18.4508L143.118 17.7612C142.08 16.6719 141.043 16.01 140.02 16.01V17.01ZM143.16 18.4001C143.318 18.1823 143.625 17.8887 144.12 17.518L143.52 16.718C143.001 17.1073 142.598 17.4723 142.351 17.8119L143.16 18.4001ZM144.123 17.5157C144.634 17.1261 144.966 17.01 145.15 17.01V16.01C144.624 16.01 144.069 16.2993 143.517 16.7203L144.123 17.5157ZM145.15 17.01C145.129 17.01 145.097 16.9998 145.076 16.9823C145.065 16.9724 145.084 16.9829 145.112 17.0546C145.172 17.2062 145.22 17.4909 145.22 17.954H146.22C146.22 17.4544 146.172 17.0172 146.042 16.6874C145.975 16.5184 145.876 16.3484 145.722 16.2182C145.558 16.0803 145.36 16.01 145.15 16.01V17.01ZM145.22 17.954C145.22 18.1478 145.156 18.5919 145.002 19.3347L145.981 19.5373C146.132 18.8107 146.22 18.2669 146.22 17.954H145.22ZM144.999 19.351C144.874 20.0744 144.733 20.5399 144.595 20.7949L145.476 21.269C145.693 20.8654 145.856 20.2669 145.984 19.521L144.999 19.351ZM144.57 20.8498C144.489 21.0562 144.434 21.3463 144.39 21.6828C144.345 22.0305 144.309 22.4674 144.28 22.9899C144.222 24.0356 144.194 25.449 144.194 27.226H145.194C145.194 25.4564 145.222 24.064 145.278 23.0451C145.306 22.5353 145.341 22.1251 145.382 21.8109C145.424 21.4856 145.468 21.2991 145.501 21.2142L144.57 20.8498ZM144.194 27.226C144.194 27.5769 144.212 27.8779 144.263 28.104C144.287 28.2134 144.327 28.3473 144.406 28.4652C144.491 28.5931 144.661 28.752 144.922 28.752V27.752C145.107 27.752 145.21 27.8682 145.238 27.9105C145.26 27.943 145.252 27.9486 145.239 27.887C145.213 27.7711 145.194 27.5591 145.194 27.226H144.194ZM144.951 28.7511C145.341 28.7282 145.705 28.4921 146.024 28.2068C146.359 27.9078 146.721 27.4839 147.111 26.9513L146.304 26.3607C145.934 26.8667 145.619 27.2282 145.358 27.4612C145.082 27.7079 144.933 27.7505 144.892 27.7529L144.951 28.7511ZM147.114 26.9466C147.9 25.8473 148.663 24.4604 149.406 22.7937L148.493 22.3863C147.767 24.013 147.036 25.3367 146.301 26.3654L147.114 26.9466ZM149.404 22.7995C149.782 21.9791 150.08 21.375 150.299 20.9797C150.41 20.78 150.492 20.648 150.549 20.5714C150.578 20.5316 150.589 20.5232 150.581 20.5297C150.577 20.5333 150.558 20.5507 150.524 20.5693C150.491 20.5868 150.419 20.62 150.318 20.62V19.62C150.098 19.62 149.952 19.7509 149.911 19.7875C149.847 19.8454 149.791 19.9142 149.744 19.9774C149.649 20.1066 149.542 20.2833 149.424 20.4952C149.187 20.9233 148.877 21.5542 148.496 22.3805L149.404 22.7995ZM150.318 20.62C150.311 20.62 150.219 20.6149 150.141 20.5253C150.074 20.4484 150.084 20.3846 150.084 20.424H151.084C151.084 20.2608 151.049 20.045 150.893 19.8667C150.726 19.6758 150.502 19.62 150.318 19.62V20.62ZM150.084 20.424C150.084 21.0086 149.766 22.0438 149.03 23.5913L149.933 24.0207C150.667 22.4775 151.084 21.258 151.084 20.424H150.084ZM149.029 23.5932C148.035 25.7078 147.132 27.2639 146.325 28.2836C145.493 29.3343 144.861 29.69 144.428 29.69V30.69C145.362 30.69 146.256 29.9817 147.109 28.9044C147.986 27.7961 148.927 26.1602 149.934 24.0188L149.029 23.5932ZM139.792 17.53C138.831 17.53 137.941 18.2374 137.114 19.323L137.909 19.929C138.704 18.8866 139.333 18.53 139.792 18.53V17.53ZM137.113 19.3244C136.256 20.4578 135.834 21.7948 135.834 23.312H136.834C136.834 21.9919 137.197 20.8715 137.91 19.9276L137.113 19.3244ZM135.834 23.312C135.834 24.7733 136.042 26.0142 136.485 27.0111L137.399 26.6049C137.031 25.7778 136.834 24.6881 136.834 23.312H135.834ZM136.489 27.0215C136.958 28.0141 137.65 28.676 138.614 28.676V27.676C138.209 27.676 137.786 27.4259 137.394 26.5945L136.489 27.0215ZM138.614 28.676C139.027 28.676 139.384 28.4253 139.67 28.1355C139.97 27.832 140.277 27.4002 140.593 26.8619C141.228 25.7819 141.952 24.1846 142.766 22.0868L141.833 21.7252C141.026 23.8074 140.325 25.3451 139.731 26.3551C139.433 26.8618 139.175 27.2137 138.959 27.4327C138.729 27.6655 138.618 27.676 138.614 27.676V28.676ZM142.796 21.968C142.824 21.7458 142.85 21.3879 142.875 20.9063L141.876 20.8537C141.851 21.3347 141.826 21.6609 141.803 21.844L142.796 21.968ZM142.873 20.9298C142.924 20.4231 142.962 20.0431 142.987 19.7898L141.992 19.6902C141.967 19.9436 141.929 20.3236 141.878 20.8302L142.873 20.9298ZM142.925 19.4949C142.64 18.9879 142.158 18.5528 141.534 18.1729L141.014 19.0271C141.555 19.3566 141.883 19.6814 142.054 19.9851L142.925 19.4949ZM141.555 18.1869C140.958 17.7799 140.365 17.53 139.792 17.53V18.53C140.08 18.53 140.474 18.6601 140.992 19.0131L141.555 18.1869ZM152.59 27.948H152.09V27.9561L152.091 27.9641L152.59 27.948ZM152.628 29.126H153.128V29.1179L153.128 29.1099L152.628 29.126ZM150.272 29.962L150.121 30.4385L150.131 30.4416L150.141 30.4444L150.272 29.962ZM149.626 26.276L149.128 26.232L149.128 26.2388L149.626 26.276ZM150.234 17.954L150.588 18.3076L150.588 18.3076L150.234 17.954ZM151.564 16.852L151.269 16.4482L151.262 16.4539L151.564 16.852ZM153.54 16.282L153.94 15.982L153.94 15.982L153.54 16.282ZM152.894 20.652L152.434 20.4562L152.403 20.5292L152.396 20.6083L152.894 20.652ZM152.704 23.654H152.204L153.145 23.89L152.704 23.654ZM155.516 18.714L155.931 18.9945L155.938 18.9829L155.516 18.714ZM159.392 17.08L159.051 17.4448L159.056 17.4499L159.062 17.4549L159.392 17.08ZM160 20.082L159.501 20.057L159.5 20.0695V20.082H160ZM159.962 21.222L159.465 21.1767L159.465 21.1767L159.962 21.222ZM159.924 21.754H159.424L160.372 21.9776L159.924 21.754ZM161.216 20.044L160.828 19.7291L160.828 19.7291L161.216 20.044ZM162.736 18.22L162.383 17.8664L162.375 17.8749L162.367 17.8837L162.736 18.22ZM163.61 17.384L163.948 17.7526L163.956 17.7452L163.964 17.7376L163.61 17.384ZM166.498 17.042L166.169 17.4183L166.175 17.4232L166.181 17.428L166.498 17.042ZM166.764 23.312L166.268 23.2542L166.267 23.2594L166.764 23.312ZM166.65 28.252V28.752H166.665L166.68 28.7511L166.65 28.252ZM168.436 26.656L168.84 26.9513L168.843 26.9466L168.436 26.656ZM170.678 22.59L170.224 22.3805L170.222 22.3863L170.678 22.59ZM171.21 23.806L170.759 23.5913L170.758 23.5932L171.21 23.806ZM164.104 29.582L163.751 29.9356L163.771 29.9551L163.792 29.9724L164.104 29.582ZM164.028 24.566L163.53 24.5214L163.53 24.5282L164.028 24.566ZM161.672 21.184L161.319 20.8304L161.315 20.8345L161.672 21.184ZM159.924 23.54L160.417 23.6269L160.418 23.6222L159.924 23.54ZM157.454 29.962L157.289 30.4339L157.303 30.4388L157.317 30.4428L157.454 29.962ZM156.922 25.516L156.424 25.4816L156.922 25.516ZM154.604 22.134L155.024 22.4056L155.026 22.4028L154.604 22.134ZM152.742 25.744L152.251 25.653L152.249 25.6618L152.248 25.6707L152.742 25.744ZM152.091 27.9641L152.129 29.1421L153.128 29.1099L153.09 27.9319L152.091 27.9641ZM152.128 29.126C152.128 29.4494 152.079 29.6111 152.042 29.6759C152.028 29.7008 152.023 29.6982 152.035 29.6916C152.046 29.6849 152.047 29.69 152.02 29.69V30.69C152.404 30.69 152.721 30.5037 152.911 30.1721C153.076 29.8822 153.128 29.5119 153.128 29.126H152.128ZM152.02 29.69C151.455 29.69 150.916 29.6193 150.404 29.4796L150.141 30.4444C150.743 30.6087 151.37 30.69 152.02 30.69V29.69ZM150.424 29.4855C150.173 29.4056 150.032 29.3278 149.962 29.271C149.902 29.222 149.936 29.2257 149.936 29.278H148.936C148.936 29.6089 149.11 29.866 149.329 30.045C149.538 30.2162 149.815 30.3411 150.121 30.4385L150.424 29.4855ZM149.936 29.278C149.936 28.9977 149.998 28.0214 150.125 26.3132L149.128 26.2388C149.002 27.9252 148.936 28.9503 148.936 29.278H149.936ZM150.125 26.3199C150.277 24.5941 150.354 23.2842 150.354 22.4H149.354C149.354 23.2385 149.28 24.5126 149.128 26.2321L150.125 26.3199ZM150.354 22.4V20.158H149.354V22.4H150.354ZM150.354 20.158C150.354 19.5631 150.386 19.1073 150.442 18.78C150.47 18.6166 150.503 18.4971 150.535 18.4137C150.568 18.327 150.592 18.3036 150.588 18.3076L149.881 17.6004C149.636 17.8453 149.522 18.2306 149.457 18.61C149.387 19.0173 149.354 19.5369 149.354 20.158H150.354ZM150.588 18.3076C150.816 18.08 151.235 17.7301 151.867 17.2501L151.262 16.4539C150.627 16.9366 150.16 17.3213 149.881 17.6004L150.588 18.3076ZM151.859 17.2557C152.178 17.0231 152.436 16.8591 152.638 16.7553C152.739 16.7036 152.819 16.6705 152.879 16.6511C152.909 16.6415 152.932 16.636 152.948 16.633C152.964 16.63 152.971 16.63 152.97 16.63V15.63C152.709 15.63 152.434 15.7359 152.182 15.8657C151.915 16.0026 151.61 16.1996 151.269 16.4483L151.859 17.2557ZM152.97 16.63C153.1 16.63 153.175 16.6413 153.212 16.6511C153.229 16.6556 153.227 16.6571 153.214 16.6496C153.2 16.6417 153.17 16.6214 153.14 16.582L153.94 15.982C153.807 15.804 153.617 15.7241 153.47 15.6849C153.316 15.644 153.145 15.63 152.97 15.63V16.63ZM153.14 16.582C153.116 16.5497 153.124 16.5416 153.136 16.5986C153.146 16.6506 153.154 16.7326 153.154 16.852H154.154C154.154 16.6927 154.144 16.5404 154.116 16.4024C154.09 16.2694 154.041 16.1156 153.94 15.982L153.14 16.582ZM153.154 16.852C153.154 18.13 152.914 19.3298 152.434 20.4562L153.355 20.8478C153.889 19.5929 154.154 18.2594 154.154 16.852H153.154ZM152.396 20.6083C152.27 22.051 152.204 23.072 152.204 23.654H153.204C153.204 23.1213 153.266 22.141 153.393 20.6957L152.396 20.6083ZM153.145 23.89C154.49 21.3781 155.415 19.7546 155.93 18.9944L155.103 18.4336C154.554 19.244 153.604 20.9139 152.264 23.418L153.145 23.89ZM155.938 18.9829C156.393 18.2691 156.81 17.7623 157.183 17.439C157.559 17.1138 157.849 17.01 158.062 17.01V16.01C157.516 16.01 157.002 16.2735 156.529 16.683C156.054 17.0943 155.577 17.6895 155.095 18.4451L155.938 18.9829ZM158.062 17.01C158.397 17.01 158.723 17.1373 159.051 17.4448L159.734 16.7152C159.252 16.2627 158.69 16.01 158.062 16.01V17.01ZM159.062 17.4549C159.389 17.7433 159.538 18.077 159.538 18.486H160.538C160.538 17.7803 160.258 17.1767 159.723 16.7051L159.062 17.4549ZM159.538 18.486C159.538 19.0358 159.526 19.5594 159.501 20.057L160.5 20.107C160.526 19.5912 160.538 19.0509 160.538 18.486H159.538ZM159.5 20.082C159.5 20.5573 159.488 20.92 159.465 21.1767L160.46 21.2673C160.488 20.9666 160.5 20.5694 160.5 20.082H159.5ZM159.465 21.1767C159.44 21.4482 159.424 21.6505 159.424 21.754H160.424C160.424 21.7055 160.434 21.5531 160.46 21.2673L159.465 21.1767ZM160.372 21.9776C160.398 21.9248 160.501 21.7685 160.722 21.4759C160.933 21.1975 161.226 20.8257 161.605 20.3589L160.828 19.7291C160.447 20.1996 160.145 20.5815 159.925 20.8731C159.715 21.1505 159.552 21.3806 159.477 21.5304L160.372 21.9776ZM161.605 20.3589C162.367 19.4192 162.864 18.8226 163.106 18.5563L162.367 17.8837C162.102 18.1747 161.586 18.7941 160.828 19.7291L161.605 20.3589ZM163.09 18.5736C163.363 18.3002 163.649 18.0266 163.948 17.7526L163.273 17.0154C162.964 17.2988 162.667 17.5824 162.383 17.8664L163.09 18.5736ZM163.964 17.7376C164.522 17.1797 164.918 17.01 165.168 17.01V16.01C164.507 16.01 163.864 16.423 163.257 17.0304L163.964 17.7376ZM165.168 17.01C165.514 17.01 165.843 17.1332 166.169 17.4183L166.828 16.6657C166.343 16.2415 165.786 16.01 165.168 16.01V17.01ZM166.181 17.428C166.502 17.693 166.644 17.9976 166.644 18.372H167.644C167.644 17.6824 167.356 17.1004 166.816 16.656L166.181 17.428ZM166.644 18.372C166.644 19.4568 166.521 21.0802 166.268 23.2542L167.261 23.3697C167.515 21.1865 167.644 19.5165 167.644 18.372H166.644ZM166.267 23.2594C166.04 25.4042 165.922 26.8013 165.922 27.416H166.922C166.922 26.8654 167.033 25.5265 167.262 23.3646L166.267 23.2594ZM165.922 27.416C165.922 27.706 165.941 27.9692 165.997 28.1746C166.025 28.2757 166.072 28.4042 166.164 28.5164C166.268 28.6435 166.434 28.752 166.65 28.752V27.752C166.711 27.752 166.773 27.7668 166.829 27.796C166.883 27.8241 166.918 27.8586 166.938 27.8831C166.972 27.9256 166.972 27.9496 166.962 27.9114C166.942 27.8382 166.922 27.6833 166.922 27.416H165.922ZM166.68 28.7511C167.07 28.7282 167.434 28.4921 167.753 28.2068C168.088 27.9078 168.45 27.4839 168.84 26.9513L168.033 26.3607C167.663 26.8667 167.347 27.2282 167.087 27.4612C166.811 27.7079 166.662 27.7505 166.621 27.7529L166.68 28.7511ZM168.843 26.9466C169.629 25.8473 170.392 24.4604 171.135 22.7937L170.222 22.3863C169.496 24.013 168.764 25.3367 168.03 26.3654L168.843 26.9466ZM171.132 22.7995C171.511 21.9791 171.809 21.375 172.028 20.9797C172.139 20.78 172.221 20.648 172.278 20.5714C172.307 20.5316 172.318 20.5232 172.31 20.5297C172.306 20.5333 172.287 20.5507 172.253 20.5693C172.22 20.5868 172.148 20.62 172.046 20.62V19.62C171.827 19.62 171.681 19.7509 171.64 19.7875C171.576 19.8454 171.52 19.9142 171.473 19.9774C171.378 20.1066 171.27 20.2833 171.153 20.4952C170.916 20.9233 170.606 21.5542 170.224 22.3805L171.132 22.7995ZM172.046 20.62C172.039 20.62 171.948 20.6149 171.87 20.5253C171.802 20.4484 171.812 20.3846 171.812 20.424H172.812C172.812 20.2608 172.778 20.045 172.622 19.8667C172.455 19.6758 172.231 19.62 172.046 19.62V20.62ZM171.812 20.424C171.812 21.0086 171.495 22.0438 170.759 23.5913L171.662 24.0207C172.396 22.4775 172.812 21.258 172.812 20.424H171.812ZM170.758 23.5932C169.764 25.7078 168.861 27.2639 168.054 28.2836C167.222 29.3343 166.59 29.69 166.156 29.69V30.69C167.091 30.69 167.985 29.9817 168.838 28.9044C169.715 27.7961 170.656 26.1602 171.663 24.0188L170.758 23.5932ZM166.156 29.69C165.371 29.69 164.81 29.5057 164.417 29.1916L163.792 29.9724C164.413 30.4689 165.219 30.69 166.156 30.69V29.69ZM164.458 29.2284C164.478 29.2484 164.435 29.2133 164.396 29.0116C164.36 28.8277 164.338 28.5655 164.338 28.214H163.338C163.338 28.5972 163.361 28.9303 163.414 29.2024C163.464 29.4567 163.554 29.7383 163.751 29.9356L164.458 29.2284ZM164.338 28.214C164.338 27.4743 164.4 26.2744 164.527 24.6038L163.53 24.5282C163.403 26.2016 163.338 27.4337 163.338 28.214H164.338ZM164.526 24.6106C164.679 22.9103 164.756 21.6253 164.756 20.766H163.756C163.756 21.5787 163.682 22.827 163.53 24.5214L164.526 24.6106ZM164.756 20.766C164.756 20.3334 164.722 19.9546 164.626 19.6674C164.535 19.3931 164.31 19.012 163.838 19.012V20.012C163.767 20.012 163.703 19.9791 163.668 19.9439C163.645 19.921 163.656 19.9196 163.678 19.9836C163.721 20.1144 163.756 20.3626 163.756 20.766H164.756ZM163.838 19.012C163.633 19.012 163.438 19.0931 163.284 19.1747C163.118 19.2627 162.937 19.3857 162.744 19.5342C162.359 19.832 161.882 20.2672 161.319 20.8304L162.026 21.5376C162.577 20.9862 163.019 20.5854 163.356 20.3258C163.524 20.1957 163.655 20.1096 163.752 20.0583C163.861 20.0006 163.88 20.012 163.838 20.012V19.012ZM161.315 20.8345C160.763 21.3998 160.327 21.8929 160.017 22.3111C159.72 22.7116 159.49 23.1039 159.431 23.4578L160.418 23.6222C160.435 23.5201 160.534 23.2918 160.82 22.9069C161.092 22.5398 161.493 22.0829 162.03 21.5335L161.315 20.8345ZM159.432 23.4531C159.271 24.3656 159.196 26.2736 159.196 29.126H160.196C160.196 26.2531 160.274 24.437 160.417 23.6269L159.432 23.4531ZM159.196 29.126C159.196 29.4524 159.15 29.6193 159.113 29.6879C159.099 29.7147 159.095 29.7093 159.112 29.699C159.13 29.6877 159.141 29.69 159.126 29.69V30.69C159.302 30.69 159.479 30.648 159.64 30.548C159.799 30.449 159.914 30.3106 159.995 30.1601C160.148 29.874 160.196 29.509 160.196 29.126H159.196ZM159.126 29.69C158.588 29.69 158.077 29.6198 157.592 29.4812L157.317 30.4428C157.896 30.6082 158.5 30.69 159.126 30.69V29.69ZM157.62 29.4901C157.397 29.4121 157.276 29.3379 157.219 29.2864C157.172 29.2443 157.194 29.2446 157.194 29.278H156.194C156.194 29.59 156.343 29.8437 156.55 30.0296C156.746 30.2061 157.005 30.3346 157.289 30.4339L157.62 29.4901ZM157.194 29.278C157.194 28.9963 157.268 27.7669 157.421 25.5504L156.424 25.4816C156.273 27.6731 156.194 28.9517 156.194 29.278H157.194ZM157.421 25.5504C157.573 23.3468 157.65 21.7859 157.65 20.88H156.65C156.65 21.7475 156.576 23.2772 156.424 25.4816L157.421 25.5504ZM157.65 20.88C157.65 20.4094 157.613 20.0021 157.511 19.6959C157.413 19.4026 157.179 19.012 156.694 19.012V20.012C156.629 20.012 156.571 19.9815 156.54 19.9511C156.522 19.9329 156.538 19.9386 156.562 20.0121C156.612 20.1619 156.65 20.4386 156.65 20.88H157.65ZM156.694 19.012C156.536 19.012 156.406 19.071 156.323 19.1186C156.233 19.1697 156.149 19.2354 156.073 19.3035C155.921 19.4399 155.753 19.6285 155.572 19.8558C155.207 20.3136 154.743 20.9866 154.183 21.8652L155.026 22.4028C155.58 21.5334 156.022 20.8954 156.354 20.4792C156.521 20.2695 156.649 20.1304 156.741 20.0482C156.787 20.0071 156.812 19.9908 156.818 19.9873C156.83 19.9803 156.783 20.012 156.694 20.012V19.012ZM154.185 21.8624C153.622 22.7312 153.179 23.4777 152.859 24.0993C152.543 24.7115 152.328 25.2365 152.251 25.653L153.234 25.835C153.284 25.5675 153.442 25.1488 153.747 24.5577C154.047 23.9759 154.472 23.2594 155.024 22.4056L154.185 21.8624ZM152.248 25.6707C152.143 26.382 152.09 27.1414 152.09 27.948H153.09C153.09 27.184 153.14 26.474 153.237 25.8173L152.248 25.6707Z" fill="white"/>
<path d="M173.5 5.61803L174.596 8.99139C174.73 9.40341 175.114 9.68237 175.547 9.68237H179.094L176.225 11.7672C175.874 12.0219 175.727 12.4732 175.861 12.8853L176.957 16.2586L174.088 14.1738C173.737 13.9191 173.263 13.9191 172.912 14.1738L170.043 16.2586L171.139 12.8853C171.273 12.4732 171.126 12.0219 170.775 11.7672L167.906 9.68237H171.453C171.886 9.68237 172.27 9.40341 172.404 8.99139L173.5 5.61803Z" fill="white" stroke="white"/>
</svg>
