<svg width="40" height="79" viewBox="0 0 40 79" fill="none" xmlns="http://www.w3.org/2000/svg">
<path d="M20.0693 77.3301C19.9425 77.189 19.7888 77.0215 19.6126 76.8356C19.082 76.2758 18.3412 75.5435 17.5071 74.8628C16.6781 74.1863 15.7314 73.5395 14.7892 73.1752C13.8508 72.8124 12.8254 72.6976 11.9368 73.2421C11.9169 73.2542 11.9012 73.2624 11.8893 73.2679C11.8762 73.252 11.858 73.2262 11.8358 73.1853C11.6988 72.9334 11.5835 72.4308 11.5184 71.6731C11.3913 70.1926 11.4754 68.0348 11.6496 65.7913C11.8233 63.5559 12.0839 61.2648 12.3015 59.5307C12.4103 58.6641 12.5081 57.9376 12.5788 57.4279C12.5985 57.2858 12.616 57.1605 12.6312 57.0537H27.1438C27.1612 57.1596 27.1815 57.2843 27.2042 57.426C27.2848 57.9276 27.3965 58.643 27.5206 59.4972C27.7689 61.2066 28.0664 63.4675 28.2644 65.6819C28.4633 67.9052 28.5588 70.0489 28.4142 71.538C28.3405 72.2971 28.2101 72.8113 28.0509 73.0833C27.9756 73.2118 27.9221 73.2373 27.9125 73.241C27.908 73.2427 27.9001 73.2453 27.8825 73.244C27.8629 73.2426 27.8259 73.236 27.7687 73.2108C26.8033 72.7857 25.7873 72.9275 24.8634 73.3089C23.9416 73.6895 23.0594 74.3283 22.3042 74.9891C21.5452 75.6532 20.8925 76.3594 20.4309 76.8971C20.293 77.0577 20.1717 77.2039 20.0693 77.3301ZM11.8581 73.2786C11.8582 73.2785 11.8596 73.2781 11.8623 73.278C11.8594 73.2787 11.8581 73.2787 11.8581 73.2786Z" fill="url(#paint0_linear_19_83)" stroke="#96BF46"/>
<path d="M19.9897 73.4806C19.8994 73.3815 19.7958 73.2697 19.6805 73.1483C19.2419 72.687 18.629 72.0826 17.9383 71.5205C17.2525 70.9624 16.4645 70.4246 15.6761 70.1206C14.9036 69.8228 14.0422 69.7183 13.2855 70.1614C13.1841 69.9693 13.0918 69.5757 13.0391 68.9628C12.9351 67.7549 13.0037 65.9891 13.1472 64.1471C13.29 62.3133 13.5045 60.4332 13.6836 59.0099C13.7731 58.2986 13.8536 57.7023 13.9117 57.2841C13.9234 57.1999 13.9342 57.1229 13.944 57.0537L25.7443 57.0537C25.7556 57.1229 25.7682 57.2 25.7818 57.2845C25.8481 57.696 25.94 58.2831 26.0421 58.984C26.2465 60.387 26.4912 62.2421 26.6541 64.0584C26.8178 65.8836 26.8957 67.6369 26.7775 68.8509C26.717 69.4724 26.6108 69.8777 26.4902 70.083C26.4593 70.1357 26.4361 70.1601 26.4245 70.1704C26.414 70.1684 26.396 70.1634 26.3688 70.1514C25.5444 69.7894 24.6816 69.9127 23.9079 70.2312C23.1363 70.5489 22.4014 71.0804 21.7759 71.6261C21.1467 72.1752 20.6062 72.7585 20.2243 73.2021C20.138 73.3024 20.0595 73.3959 19.9897 73.4806ZM26.4365 70.1714C26.4366 70.1715 26.4353 70.1717 26.4325 70.1715C26.435 70.1711 26.4364 70.1712 26.4365 70.1714ZM13.3305 70.2299C13.3305 70.2299 13.3301 70.2296 13.3293 70.2288C13.3301 70.2295 13.3305 70.2299 13.3305 70.2299Z" fill="url(#paint1_linear_19_83)" stroke="#96BF46"/>
<path d="M19.9494 69.2156C19.9047 69.1674 19.8568 69.1163 19.8059 69.0628C19.4707 68.7105 19.0012 68.248 18.4713 67.8172C17.9463 67.3904 17.3363 66.9733 16.7203 66.736C16.1565 66.5189 15.51 66.4251 14.9216 66.7108C14.8721 66.5604 14.8245 66.3148 14.7939 65.9597C14.7158 65.0536 14.7671 63.7223 14.876 62.3252C14.9843 60.9363 15.147 59.5117 15.2829 58.4326C15.3508 57.8935 15.4119 57.4416 15.456 57.1246C15.4594 57.1002 15.4627 57.0765 15.4659 57.0537H24.223C24.2268 57.0774 24.2308 57.102 24.2349 57.1275C24.2852 57.4393 24.3549 57.8841 24.4324 58.4154C24.5874 59.4788 24.773 60.8841 24.8965 62.2592C25.0207 63.6434 25.0789 64.9642 24.9903 65.8733C24.9466 66.3219 24.8724 66.6019 24.7983 66.7406C24.1471 66.4743 23.4749 66.5782 22.8846 66.8209C22.2813 67.0691 21.7117 67.4817 21.2319 67.9C20.7482 68.3216 20.3335 68.7687 20.0412 69.108C20.0092 69.1452 19.9786 69.1811 19.9494 69.2156ZM24.7616 66.7965C24.7616 66.7965 24.7619 66.7962 24.7625 66.7956C24.7619 66.7962 24.7616 66.7965 24.7616 66.7965ZM14.9849 66.8514C14.9848 66.8515 14.9842 66.8507 14.9829 66.849C14.9842 66.8505 14.9849 66.8513 14.9849 66.8514Z" fill="url(#paint2_linear_19_83)" stroke="#96BF46"/>
<path d="M0.738885 53.2769L4.45032 37.1759L10.1627 33.1317L10.1627 48.0704L0.738885 53.2769Z" fill="url(#paint3_linear_19_83)" stroke="#96BF46"/>
<path d="M39.2611 53.2768L35.5497 37.1757L29.8373 33.1315V48.0702L39.2611 53.2768Z" fill="url(#paint4_linear_19_83)" stroke="#96BF46"/>
<mask id="path-6-inside-1_19_83" fill="white">
<path fill-rule="evenodd" clip-rule="evenodd" d="M8.24967 14.139C10.7189 6.06473 17.6573 1.03843 19.921 0.086966L19.921 0C19.9569 0.0123231 19.9946 0.0260957 20.0341 0.0413111C20.0735 0.0260957 20.1112 0.0123231 20.1472 0L20.1471 0.086966C22.4108 1.03843 29.3492 6.06473 31.8185 14.139C34.3767 22.5044 33.7832 49.2959 33.7832 49.2959L31.7028 49.2958V51.6055H29.3464V53.1369H20.1473H19.9208H10.7217V51.6055H8.36529V49.2958L6.28497 49.2959C6.28497 49.2959 5.69142 22.5044 8.24967 14.139ZM27.8056 53.137H12.1355L10.9573 59.8528H28.9838L27.8056 53.137Z"/>
</mask>
<path fill-rule="evenodd" clip-rule="evenodd" d="M8.24967 14.139C10.7189 6.06473 17.6573 1.03843 19.921 0.086966L19.921 0C19.9569 0.0123231 19.9946 0.0260957 20.0341 0.0413111C20.0735 0.0260957 20.1112 0.0123231 20.1472 0L20.1471 0.086966C22.4108 1.03843 29.3492 6.06473 31.8185 14.139C34.3767 22.5044 33.7832 49.2959 33.7832 49.2959L31.7028 49.2958V51.6055H29.3464V53.1369H20.1473H19.9208H10.7217V51.6055H8.36529V49.2958L6.28497 49.2959C6.28497 49.2959 5.69142 22.5044 8.24967 14.139ZM27.8056 53.137H12.1355L10.9573 59.8528H28.9838L27.8056 53.137Z" fill="url(#paint5_linear_19_83)"/>
<path d="M19.921 0.086966L20.3085 1.00884L20.921 0.751377L20.921 0.0869222L19.921 0.086966ZM8.24967 14.139L7.29339 13.8466L8.24967 14.139ZM19.921 0L20.2452 -0.945969L18.9209 -1.39992L18.921 4.38642e-05L19.921 0ZM20.0341 0.0413111L19.674 0.974224L20.0341 1.11322L20.3942 0.974224L20.0341 0.0413111ZM20.1472 0L21.1472 4.38642e-05L21.1472 -1.39992L19.8229 -0.945969L20.1472 0ZM20.1471 0.086966L19.1471 0.0869222L19.1471 0.751377L19.7597 1.00884L20.1471 0.086966ZM31.8185 14.139L30.8622 14.4315L31.8185 14.139ZM33.7832 49.2959L33.7831 50.2959L34.7613 50.296L34.7829 49.3181L33.7832 49.2959ZM31.7028 49.2958L31.7029 48.2958L30.7028 48.2958V49.2958H31.7028ZM31.7028 51.6055V52.6055H32.7028V51.6055H31.7028ZM29.3464 51.6055V50.6055H28.3464V51.6055H29.3464ZM29.3464 53.1369V54.1369H30.3464V53.1369H29.3464ZM10.7217 53.1369H9.7217V54.1369H10.7217V53.1369ZM10.7217 51.6055H11.7217V50.6055H10.7217V51.6055ZM8.36529 51.6055H7.36529L7.36529 52.6055H8.36529V51.6055ZM8.36529 49.2958H9.36529V48.2958L8.36524 48.2958L8.36529 49.2958ZM6.28497 49.2959L5.28521 49.3181L5.30688 50.296L6.28502 50.2959L6.28497 49.2959ZM12.1355 53.137V52.137H11.2957L11.1505 52.9642L12.1355 53.137ZM27.8056 53.137L28.7906 52.9642L28.6455 52.137H27.8056V53.137ZM10.9573 59.8528L9.97234 59.68L9.76659 60.8528H10.9573V59.8528ZM28.9838 59.8528L28.9838 60.8528H30.1745L29.9688 59.68L28.9838 59.8528ZM19.5335 -0.834911C18.2436 -0.292717 15.8356 1.29448 13.4466 3.74367C11.0421 6.20871 8.58678 9.61728 7.29339 13.8466L9.20596 14.4315C10.3818 10.5865 12.6303 7.44475 14.8783 5.14019C17.1417 2.8198 19.3348 1.41812 20.3085 1.00884L19.5335 -0.834911ZM18.921 4.38642e-05L18.921 0.0870099L20.921 0.0869222L20.921 -4.38642e-05L18.921 4.38642e-05ZM20.3942 -0.891602C20.3441 -0.910943 20.2944 -0.929132 20.2452 -0.945969L19.5967 0.945969C19.6195 0.953779 19.6452 0.963134 19.674 0.974224L20.3942 -0.891602ZM19.8229 -0.945969C19.7738 -0.929132 19.7241 -0.910943 19.674 -0.891602L20.3942 0.974224C20.4229 0.963134 20.4486 0.953779 20.4714 0.945969L19.8229 -0.945969ZM21.1471 0.0870099L21.1472 4.38642e-05L19.1472 -4.38642e-05L19.1471 0.0869222L21.1471 0.0870099ZM32.7747 13.8466C31.4814 9.61728 29.026 6.20871 26.6216 3.74367C24.2325 1.29448 21.8246 -0.292717 20.5346 -0.834911L19.7597 1.00884C20.7334 1.41812 22.9265 2.8198 25.1899 5.14019C27.4378 7.44475 29.6863 10.5865 30.8622 14.4315L32.7747 13.8466ZM33.7832 49.2959C34.7829 49.3181 34.7829 49.3179 34.7829 49.3177C34.7829 49.3175 34.7829 49.3171 34.783 49.3167C34.783 49.3158 34.783 49.3145 34.783 49.3128C34.7831 49.3094 34.7832 49.3044 34.7834 49.2978C34.7836 49.2846 34.7841 49.2651 34.7846 49.2393C34.7856 49.1878 34.7872 49.1115 34.789 49.0118C34.7928 48.8123 34.7979 48.5192 34.8036 48.1434C34.8148 47.3918 34.8281 46.3096 34.8359 44.985C34.8516 42.3363 34.8459 38.7162 34.7599 34.8324C34.674 30.9504 34.5077 26.7952 34.2013 23.0793C33.8968 19.386 33.4484 16.0493 32.7747 13.8466L30.8622 14.4315C31.4677 16.4114 31.9044 19.5607 32.2081 23.2436C32.5099 26.9038 32.6749 31.015 32.7604 34.8766C32.8458 38.7364 32.8516 42.3369 32.836 44.9731C32.8281 46.2909 32.815 47.3671 32.8038 48.1134C32.7982 48.4865 32.7931 48.7771 32.7894 48.9742C32.7875 49.0728 32.786 49.1479 32.785 49.1983C32.7845 49.2235 32.7841 49.2425 32.7838 49.2551C32.7837 49.2615 32.7836 49.2662 32.7835 49.2693C32.7835 49.2709 32.7834 49.272 32.7834 49.2728C32.7834 49.2731 32.7834 49.2734 32.7834 49.2736C32.7834 49.2737 32.7834 49.2738 33.7832 49.2959ZM31.7028 50.2958L33.7831 50.2959L33.7832 48.2959L31.7029 48.2958L31.7028 50.2958ZM32.7028 51.6055V49.2958H30.7028V51.6055H32.7028ZM29.3464 52.6055H31.7028V50.6055H29.3464V52.6055ZM30.3464 53.1369V51.6055H28.3464V53.1369H30.3464ZM20.1473 54.1369H29.3464V52.1369H20.1473V54.1369ZM19.9208 54.1369H20.1473V52.1369H19.9208V54.1369ZM10.7217 54.1369H19.9208V52.1369H10.7217V54.1369ZM9.7217 51.6055V53.1369H11.7217V51.6055H9.7217ZM8.36529 52.6055H10.7217V50.6055H8.36529V52.6055ZM7.36529 49.2958V51.6055H9.36529V49.2958H7.36529ZM6.28502 50.2959L8.36534 50.2958L8.36524 48.2958L6.28492 48.2959L6.28502 50.2959ZM7.29339 13.8466C6.61976 16.0493 6.17134 19.386 5.86681 23.0793C5.5604 26.7952 5.39414 30.9504 5.30822 34.8324C5.22226 38.7162 5.21651 42.3363 5.23222 44.985C5.24007 46.3096 5.2533 47.3918 5.26457 48.1434C5.27021 48.5192 5.27536 48.8123 5.2791 49.0118C5.28098 49.1115 5.2825 49.1878 5.28355 49.2393C5.28408 49.2651 5.28449 49.2846 5.28478 49.2978C5.28492 49.3044 5.28502 49.3094 5.2851 49.3128C5.28514 49.3145 5.28516 49.3158 5.28518 49.3167C5.28519 49.3171 5.2852 49.3175 5.28521 49.3177C5.28521 49.3179 5.28521 49.3181 6.28497 49.2959C7.28472 49.2738 7.28472 49.2737 7.28472 49.2736C7.28471 49.2734 7.28471 49.2731 7.2847 49.2728C7.28468 49.272 7.28466 49.2709 7.28463 49.2693C7.28456 49.2662 7.28446 49.2615 7.28432 49.2551C7.28405 49.2425 7.28365 49.2235 7.28313 49.1983C7.2821 49.1479 7.2806 49.0728 7.27875 48.9742C7.27505 48.7771 7.26995 48.4865 7.26435 48.1134C7.25316 47.3671 7.24 46.2909 7.23218 44.9731C7.21655 42.3369 7.2223 38.7364 7.30773 34.8766C7.3932 31.015 7.55823 26.9038 7.86004 23.2436C8.16373 19.5607 8.60046 16.4114 9.20596 14.4315L7.29339 13.8466ZM12.1355 54.137H27.8056V52.137H12.1355V54.137ZM11.9423 60.0256L13.1205 53.3098L11.1505 52.9642L9.97234 59.68L11.9423 60.0256ZM28.9838 58.8528H10.9573V60.8528H28.9838L28.9838 58.8528ZM26.8207 53.3098L27.9989 60.0256L29.9688 59.68L28.7906 52.9642L26.8207 53.3098Z" fill="#96BF46" mask="url(#path-6-inside-1_19_83)"/>
<path d="M20.1409 56.8999L16.0851 33.5952L20.1423 28.8195L24.0932 33.5924L20.1409 56.8999Z" fill="url(#paint6_linear_19_83)" stroke="#96BF46"/>
<circle cx="20.1473" cy="18.0265" r="4.80192" stroke="#96BF46"/>
<defs>
<linearGradient id="paint0_linear_19_83" x1="19.9705" y1="56.5537" x2="19.9705" y2="78.1149" gradientUnits="userSpaceOnUse">
<stop/>
<stop offset="0.594777" stop-color="#1A3A53"/>
</linearGradient>
<linearGradient id="paint1_linear_19_83" x1="19.9117" y1="56.5537" x2="19.9117" y2="74.2609" gradientUnits="userSpaceOnUse">
<stop/>
<stop offset="0.594777" stop-color="#1A3A53"/>
</linearGradient>
<linearGradient id="paint2_linear_19_83" x1="19.8946" y1="56.5537" x2="19.8946" y2="69.9904" gradientUnits="userSpaceOnUse">
<stop/>
<stop offset="0.594777" stop-color="#1A3A53"/>
</linearGradient>
<linearGradient id="paint3_linear_19_83" x1="5.33137" y1="32.1651" x2="5.33137" y2="54.2564" gradientUnits="userSpaceOnUse">
<stop offset="0.246257"/>
<stop offset="1" stop-color="#1A3A53"/>
</linearGradient>
<linearGradient id="paint4_linear_19_83" x1="34.6686" y1="32.1649" x2="34.6686" y2="54.2562" gradientUnits="userSpaceOnUse">
<stop offset="0.246257"/>
<stop offset="1" stop-color="#1A3A53"/>
</linearGradient>
<linearGradient id="paint5_linear_19_83" x1="20.0341" y1="0" x2="20.0341" y2="59.8528" gradientUnits="userSpaceOnUse">
<stop offset="0.246257"/>
<stop offset="1" stop-color="#1A3A53"/>
</linearGradient>
<linearGradient id="paint6_linear_19_83" x1="20.0884" y1="28.0414" x2="20.0884" y2="59.8529" gradientUnits="userSpaceOnUse">
<stop offset="0.246257"/>
<stop offset="1" stop-color="#1A3A53"/>
</linearGradient>
</defs>
</svg>
